
<svg xmlns="http://www.w3.org/2000/svg" xmlns:xlink="http://www.w3.org/1999/xlink">
  <defs>
    <symbol id="icon-caret-right" viewBox="0 0 20 20">
      <path fill-rule="evenodd" d="M7.293 14.707a1 1 0 010-1.414L10.586 10 7.293 6.707a1 1 0 011.414-1.414l4 4a1 1 0 010 1.414l-4 4a1 1 0 01-1.414 0z" clip-rule="evenodd"/>
    </symbol>
    <symbol id="icon-hamburguer-yum" viewBox="0 0 20 20">
      <path d="M20 15a1 1 0 010 2H4a1 1 0 010-2h16zm0-4a1 1 0 010 2H4a1 1 0 010-2h16zm0-4a1 1 0 010 2H4a1 1 0 110-2h16z" fill="currentcolor"/>
    </symbol>
    <symbol id="icon-marketplace" viewBox="0 0 18 18">
      <path d="M3 8v5h12V8h2v7.995A2 2 0 0115.006 18H2.994A1.997 1.997 0 011 15.995V8h2zm11.993-8c.556 0 1.206.398 1.45.888L18 4v1l-.025.16A2.274 2.274 0 0115.75 7c-1.1 0-2.019-.791-2.225-1.84L13.5 5l-.025.16A2.274 2.274 0 0111.25 7c-1.1 0-2.019-.791-2.225-1.84L9 5l-.025.16A2.274 2.274 0 016.75 7c-1.1 0-2.019-.791-2.225-1.84L4.5 5l-.025.16A2.274 2.274 0 012.25 7C1.15 7 .231 6.209.025 5.16L0 5V4L1.556.888C1.801.398 2.45 0 3.006 0h11.987z" fill="currentcolor"/>
    </symbol>
    <symbol id="icon-currency-dollar" viewBox="0 0 24 24">
      <path stroke-linecap="round" stroke-linejoin="round" d="M12 6v12m-3-2.818l.879.659c1.171.879 3.07.879 4.242 0 1.172-.879 1.172-2.303 0-3.182C13.536 12.219 12.768 12 12 12c-.725 0-1.45-.22-2.003-.659-1.106-.879-1.106-2.303 0-3.182s2.9-.879 4.006 0l.415.33M21 12a9 9 0 11-18 0 9 9 0 0118 0z" stroke="currentcolor" fill="none" stroke-width="1.5"  />
    </symbol>
    <symbol id="icon-arrow-path-rounded" viewBox="0 0 24 24">
      <path stroke-linecap="round" stroke-linejoin="round" d="M19.5 12c0-1.232-.046-2.453-.138-3.662a4.006 4.006 0 00-3.7-3.7 48.678 48.678 0 00-7.324 0 4.006 4.006 0 00-3.7 3.7c-.017.22-.032.441-.046.662M19.5 12l3-3m-3 3l-3-3m-12 3c0 1.232.046 2.453.138 3.662a4.006 4.006 0 003.7 3.7 48.656 48.656 0 007.324 0 4.006 4.006 0 003.7-3.7c.017-.22.032-.441.046-.662M4.5 12l3 3m-3-3l-3 3" stroke="currentcolor" fill="none" stroke-width="1.5"  />
    </symbol>
    <symbol id="icon-photo" viewBox="0 0 24 24">
      <path stroke-linecap="round" stroke-linejoin="round" d="M2.25 15.75l5.159-5.159a2.25 2.25 0 013.182 0l5.159 5.159m-1.5-1.5l1.409-1.409a2.25 2.25 0 013.182 0l2.909 2.909m-18 3.75h16.5a1.5 1.5 0 001.5-1.5V6a1.5 1.5 0 00-1.5-1.5H3.75A1.5 1.5 0 002.25 6v12a1.5 1.5 0 001.5 1.5zm10.5-11.25h.008v.008h-.008V8.25zm.375 0a.375.375 0 11-.75 0 .375.375 0 01.75 0z" stroke="currentcolor" fill="none" stroke-width="1.5"  />
    </symbol>
    <symbol id="icon-envelope" viewBox="0 0 24 24">
      <path stroke-linecap="round" stroke-linejoin="round" d="M21.75 6.75v10.5a2.25 2.25 0 01-2.25 2.25h-15a2.25 2.25 0 01-2.25-2.25V6.75m19.5 0A2.25 2.25 0 0019.5 4.5h-15a2.25 2.25 0 00-2.25 2.25m19.5 0v.243a2.25 2.25 0 01-1.07 1.916l-7.5 4.615a2.25 2.25 0 01-2.36 0L3.32 8.91a2.25 2.25 0 01-1.07-1.916V6.75" stroke="currentcolor" fill="none" stroke-width="1.5"  />
    </symbol>
    <symbol id="icon-paint-brush" viewBox="0 0 24 24">
      <path stroke-linecap="round" stroke-linejoin="round" d="M9.53 16.122a3 3 0 00-5.78 1.128 2.25 2.25 0 01-2.4 2.245 4.5 4.5 0 008.4-2.245c0-.399-.078-.78-.22-1.128zm0 0a15.998 15.998 0 003.388-1.62m-5.043-.025a15.994 15.994 0 011.622-3.395m3.42 3.42a15.995 15.995 0 004.764-4.648l3.876-5.814a1.151 1.151 0 00-1.597-1.597L14.146 6.32a15.996 15.996 0 00-4.649 4.763m3.42 3.42a6.776 6.776 0 00-3.42-3.42" stroke="currentcolor" fill="none" stroke-width="1.5"  />
    </symbol>
    <symbol id="icon-fire" viewBox="0 0 24 24">
      <path stroke-linecap="round" stroke-linejoin="round" d="M15.362 5.214A8.252 8.252 0 0112 21 8.25 8.25 0 016.038 7.048 8.287 8.287 0 009 9.6a8.983 8.983 0 013.361-6.867 8.21 8.21 0 003 2.48z" stroke="currentcolor" fill="none" stroke-width="1.5"  />
      <path stroke-linecap="round" stroke-linejoin="round" d="M12 18a3.75 3.75 0 00.495-7.467 5.99 5.99 0 00-1.925 3.546 5.974 5.974 0 01-2.133-1A3.75 3.75 0 0012 18z" stroke="currentcolor" fill="none" stroke-width="1.5"  />
    </symbol>
    <symbol id="icon-arrow-trending-up" viewBox="0 0 24 24">
      <path stroke-linecap="round" stroke-linejoin="round" d="M2.25 18L9 11.25l4.306 4.307a11.95 11.95 0 015.814-5.519l2.74-1.22m0 0l-5.94-2.28m5.94 2.28l-2.28 5.941" stroke="currentcolor" fill="none" stroke-width="1.5"  />
    </symbol>
    <symbol id="icon-view-columns" viewBox="0 0 24 24">
      <path stroke-linecap="round" stroke-linejoin="round" d="M9 4.5v15m6-15v15m-10.875 0h15.75c.621 0 1.125-.504 1.125-1.125V5.625c0-.621-.504-1.125-1.125-1.125H4.125C3.504 4.5 3 5.004 3 5.625v12.75c0 .621.504 1.125 1.125 1.125z" stroke="currentcolor" fill="none" stroke-width="1.5"  />
    </symbol>
    <symbol id="icon-sparkles" viewBox="0 0 24 24">
      <path stroke-linecap="round" stroke-linejoin="round" d="M9.813 15.904L9 18.75l-.813-2.846a4.5 4.5 0 00-3.09-3.09L2.25 12l2.846-.813a4.5 4.5 0 003.09-3.09L9 5.25l.813 2.846a4.5 4.5 0 003.09 3.09L15.75 12l-2.846.813a4.5 4.5 0 00-3.09 3.09zM18.259 8.715L18 9.75l-.259-1.035a3.375 3.375 0 00-2.455-2.456L14.25 6l1.036-.259a3.375 3.375 0 002.455-2.456L18 2.25l.259 1.035a3.375 3.375 0 002.456 2.456L21.75 6l-1.035.259a3.375 3.375 0 00-2.456 2.456zM16.894 20.567L16.5 21.75l-.394-1.183a2.25 2.25 0 00-1.423-1.423L13.5 18.75l1.183-.394a2.25 2.25 0 001.423-1.423l.394-1.183.394 1.183a2.25 2.25 0 001.423 1.423l1.183.394-1.183.394a2.25 2.25 0 00-1.423 1.423z" stroke="currentcolor" fill="none" stroke-width="1.5"  />
    </symbol>
    <symbol id="recraftr-logo-dark" viewBox="0 0 590 112">
      <path fill="currentcolor" d="M52.036 81.796c-1.853-5.424-1.765-9.628-1.478-12.335l3.266-.296c.499.595 1.144 1.504 1.781 2.64.97 1.729 1.603 3.427 1.704 4.538a2.754 2.754 0 002.993 2.492 2.753 2.753 0 002.494-2.99c-.205-2.252-1.275-4.752-2.383-6.728a31.23 31.23 0 00-.245-.429l2.278-.163c.256.216.5.413.721.59l.093.075.1.082c.544.438.984.811 1.416 1.28.823.892 1.823 2.36 2.91 5.543 1.112 3.252 1.678 6.612 1.18 9.267-.24 1.284-.714 2.33-1.433 3.153-.71.811-1.783 1.548-3.461 2.026-3.557 1.014-5.743.387-7.346-.898-1.803-1.445-3.296-4.059-4.59-7.847z"/>
      <path fill="currentcolor" fill-rule="evenodd" d="M7.062 77.712a51.574 51.574 0 01-6.998-23.56C-1.343 25.736 20.471 1.448 48.964.061c22.02-1.072 41.422 11.855 49.751 30.899a51.563 51.563 0 016.998 23.559c.888 17.922-7.453 34.175-20.858 44.096-3.57 8.42-11.45 12.181-18.505 13.144-5.594.764-10.729-.297-15.16-3.181-19.659-1.174-36.516-13.465-44.128-30.867zm7.484-23.818c.838 16.896 12.676 30.64 28.21 34.58 1.488 3.495 3.63 7.096 6.93 9.742l-1.46-.189C25.407 96.21 7.075 77.645 5.92 54.314 4.664 28.99 24.112 7.276 49.604 6.035c25.492-1.24 46.993 18.482 48.248 43.805.775 15.643-6.338 29.874-17.867 38.777 0 0-.385-.477-.243-1.238.639-3.41.377-6.865-.25-9.957a37.465 37.465 0 009.732-27.162C88.198 29.554 70.65 13.582 50.028 14.585 29.406 15.59 13.52 33.188 14.546 53.894zM75.31 43.587c-1.07-4.897-5.59-8.07-10.093-7.087-4.503.982-7.286 5.748-6.215 10.645 1.07 4.896 5.59 8.07 10.093 7.087 4.503-.983 7.286-5.749 6.215-10.645zM39.18 53.982c-2.038.268-4.049.98-6.775 2.344a3.063 3.063 0 01-4.108-1.365 3.056 3.056 0 011.367-4.103c3.027-1.514 5.729-2.545 8.714-2.939 2.98-.393 6.02-.12 9.695.643a3.058 3.058 0 11-1.246 5.987c-3.314-.688-5.606-.837-7.648-.567zm-5.805 8.707a2.145 2.145 0 00-2.583 2.278c.37 4.255 3.663 8.51 8.053 11.481a26.701 26.701 0 006.894 3.324 37.43 37.43 0 001.082 3.802c1.39 4.07 3.304 7.916 6.357 10.362 3.254 2.607 7.375 3.302 12.305 1.898 2.566-.731 4.604-1.988 6.1-3.7 1.489-1.702 2.316-3.71 2.7-5.76.751-4.012-.144-8.433-1.382-12.056a34.747 34.747 0 00-.795-2.115c1.526-1.759 2.732-3.606 3.554-5.35.895-1.898 1.464-3.953 1.192-5.713a2.14 2.14 0 00-2.854-1.684c-11.934 4.364-29.522 5.602-40.623 3.233z" clip-rule="evenodd"/>
      <path fill="currentcolor" d="M489.976 50.442h20.562v24.417c0 7.553 1.896 13.016 5.688 16.389 3.792 3.3 9.079 4.949 15.86 4.949h9.517V80.249h-6.673c-2.041 0-3.5-.404-4.375-1.21-.875-.807-1.313-2.127-1.313-3.96V50.442h12.251V34.823h-12.251V19.865h-18.704v14.958h-20.562v-.55c0-3.226.729-5.462 2.188-6.709 1.458-1.247 3.974-1.76 7.547-1.54V10.076c-.656-.074-1.677-.11-3.063-.11-8.313 0-14.62 1.98-18.922 5.94-4.303 3.885-6.454 9.605-6.454 17.157v1.76h-6.781v15.619h6.781v45.755h18.704V50.442zM266.25 57.481c0-7.626 1.641-14.409 4.922-20.348 3.282-6.013 7.839-10.669 13.673-13.969 5.906-3.373 12.578-5.059 20.016-5.059 9.115 0 16.918 2.42 23.408 7.26 6.49 4.839 10.829 11.438 13.016 19.797h-20.563c-1.532-3.226-3.719-5.682-6.563-7.369-2.771-1.687-5.943-2.53-9.516-2.53-5.761 0-10.428 2.017-14.001 6.05-3.573 4.032-5.36 9.422-5.36 16.168 0 6.746 1.787 12.135 5.36 16.168 3.573 4.033 8.24 6.05 14.001 6.05 3.573 0 6.745-.843 9.516-2.53 2.844-1.686 5.031-4.143 6.563-7.37h20.563c-2.187 8.36-6.526 14.96-13.016 19.799-6.49 4.766-14.293 7.149-23.408 7.149-7.438 0-14.11-1.65-20.016-4.95-5.834-3.373-10.391-8.029-13.673-13.968-3.281-5.94-4.922-12.722-4.922-20.348z"/>
      <path fill="currentcolor" fill-rule="evenodd" d="M153.855 67.05l15.97 29.147h21.11L173.216 65.62c5.615-1.686 9.844-4.546 12.688-8.579 2.917-4.033 4.375-8.616 4.375-13.749 0-4.546-1.057-8.652-3.172-12.318-2.115-3.74-5.323-6.673-9.625-8.8-4.23-2.126-9.371-3.19-15.423-3.19h-31.392v77.213h18.704V67.05h4.484zm7.11-13.309h-11.594V34.603h11.594c3.427 0 5.98.844 7.657 2.53 1.75 1.686 2.625 3.996 2.625 6.93 0 3.079-.875 5.462-2.625 7.149-1.677 1.686-4.23 2.53-7.657 2.53zm98.262 16.279c.218-1.907.328-3.74.328-5.5 0-6.16-1.313-11.549-3.938-16.168-2.552-4.62-6.125-8.176-10.719-10.669-4.594-2.493-9.845-3.74-15.751-3.74-6.052 0-11.412 1.284-16.079 3.85s-8.313 6.233-10.938 10.999c-2.552 4.766-3.828 10.339-3.828 16.718 0 6.38 1.312 11.952 3.937 16.718 2.625 4.767 6.271 8.433 10.938 11 4.667 2.566 9.99 3.849 15.97 3.849 4.958 0 9.443-.917 13.454-2.75 4.01-1.833 7.328-4.363 9.953-7.589 2.698-3.226 4.558-6.856 5.579-10.889h-19.908c-1.823 3.96-5.067 5.94-9.734 5.94-3.136 0-5.798-.99-7.985-2.97-2.115-2.053-3.318-4.986-3.61-8.8h42.331zm-22.095-18.148c2.187 1.906 3.281 4.472 3.281 7.699h-23.407c.51-3.373 1.823-5.976 3.937-7.81 2.188-1.833 4.85-2.75 7.985-2.75 3.282 0 6.016.954 8.204 2.86z" clip-rule="evenodd"/>
      <path fill="currentcolor" d="M376.54 37.133c-3.282 1.906-6.016 4.546-8.204 7.92v-10.23h-18.704v61.374h18.704V67.71c0-5.06 1.167-8.58 3.5-10.559 2.334-2.053 5.834-3.08 10.501-3.08h5.141V34.163c-4.011 0-7.657.99-10.938 2.97z"/>
      <path fill="currentcolor" fill-rule="evenodd" d="M391.456 65.4c0-6.306 1.167-11.842 3.5-16.608 2.406-4.766 5.651-8.433 9.735-10.999 4.084-2.566 8.641-3.85 13.673-3.85 4.302 0 8.057.88 11.266 2.64 3.281 1.76 5.797 4.07 7.547 6.93v-8.69h18.704v61.374h-18.704v-8.69c-1.823 2.86-4.375 5.17-7.657 6.93-3.208 1.76-6.964 2.64-11.266 2.64-4.958 0-9.479-1.283-13.563-3.85-4.084-2.64-7.329-6.342-9.735-11.109-2.333-4.839-3.5-10.412-3.5-16.718zm45.721.11c0-4.693-1.313-8.396-3.938-11.109-2.552-2.713-5.688-4.07-9.406-4.07-3.719 0-6.891 1.357-9.517 4.07-2.552 2.64-3.828 6.306-3.828 11 0 4.692 1.276 8.432 3.828 11.218 2.626 2.713 5.798 4.07 9.517 4.07 3.718 0 6.854-1.357 9.406-4.07 2.625-2.713 3.938-6.416 3.938-11.109z" clip-rule="evenodd"/>
      <path fill="currentcolor" d="M578.929 37.133c-3.282 1.906-6.016 4.546-8.204 7.92v-10.23h-18.704v61.374h18.704V67.71c0-5.06 1.167-8.58 3.5-10.559 2.334-2.053 5.834-3.08 10.501-3.08h5.141V34.163c-4.011 0-7.657.99-10.938 2.97z"/>
    </symbol>
    <symbol id="recraftr-emblem-default" viewBox="0 0 107 112">
      <path fill="currentcolor" d="M19.063 53.877c-1.592-18.337 12-34.492 30.358-36.083 18.36-1.59 34.533 11.985 36.126 30.323a33.16 33.16 0 0 1-5.64 21.606 27.51 27.51 0 0 1-2.042 3.24c.734 2.15 1.41 4.701 1.712 7.402 8.747-8.115 13.79-20.03 12.68-32.83-1.915-22.038-21.354-38.354-43.418-36.442-22.064 1.912-38.4 21.327-36.485 43.366 1.624 18.7 15.866 33.28 33.623 36.1-.987-1.857-1.754-3.782-2.38-5.612a42.723 42.723 0 0 1-.608-1.926l-.107-.044c-12.79-3.763-22.597-15.03-23.819-29.1Z"/>
      <path fill="currentcolor" d="M66.084 36.5c4.504-.982 9.022 2.19 10.093 7.087 1.07 4.896-1.712 9.662-6.216 10.645-4.503.982-9.022-2.19-10.093-7.087-1.07-4.897 1.713-9.663 6.216-10.645ZM40.046 53.982c-2.037.268-4.048.98-6.774 2.344a3.063 3.063 0 0 1-4.108-1.365 3.056 3.056 0 0 1 1.367-4.103c3.027-1.514 5.729-2.545 8.714-2.939 2.98-.393 6.02-.12 9.695.643a3.058 3.058 0 1 1-1.247 5.987c-3.314-.688-5.606-.836-7.647-.567Z"/>
      <path fill="currentcolor" fill-rule="evenodd" d="M34.242 62.689a2.145 2.145 0 0 0-2.583 2.278c.37 4.255 3.663 8.51 8.053 11.481a26.698 26.698 0 0 0 6.894 3.324 37.377 37.377 0 0 0 1.082 3.802c1.39 4.07 3.303 7.916 6.357 10.362 3.253 2.607 7.374 3.303 12.305 1.898 2.566-.731 4.604-1.987 6.1-3.7 1.489-1.702 2.316-3.71 2.7-5.76.75-4.012-.144-8.433-1.382-12.056a34.743 34.743 0 0 0-.796-2.115c1.527-1.759 2.733-3.606 3.555-5.35.895-1.898 1.464-3.953 1.192-5.713a2.14 2.14 0 0 0-2.854-1.684C62.93 63.82 45.343 65.058 34.242 62.69Zm18.66 19.107c-1.853-5.424-1.764-9.628-1.477-12.335l3.265-.296c.5.595 1.145 1.504 1.782 2.64.969 1.729 1.602 3.427 1.704 4.538a2.754 2.754 0 0 0 2.993 2.492 2.753 2.753 0 0 0 2.494-2.99c-.205-2.252-1.275-4.752-2.383-6.728-.08-.143-.162-.286-.246-.429l2.278-.163c.256.216.5.413.722.59l.092.075.102.082c.543.438.983.811 1.415 1.28.823.892 1.823 2.36 2.91 5.543 1.112 3.252 1.678 6.613 1.18 9.267-.24 1.284-.715 2.33-1.433 3.153-.71.811-1.783 1.548-3.462 2.026-3.556 1.014-5.742.387-7.345-.898-1.803-1.445-3.296-4.059-4.59-7.847Z" clip-rule="evenodd"/>
      <path fill="currentcolor" fill-rule="evenodd" d="M.931 54.151A51.574 51.574 0 0 0 7.93 77.712c7.611 17.402 24.47 29.693 44.128 30.867 4.431 2.884 9.565 3.945 15.16 3.181 7.054-.963 14.935-4.724 18.504-13.144 13.406-9.921 21.747-26.174 20.859-44.096a51.572 51.572 0 0 0-6.998-23.56C91.252 11.918 71.85-1.01 49.83.063 21.337 1.449-.477 25.737.93 54.152Zm96.707-4.458c.815 16.463-7.182 31.306-19.834 39.923-2.148 6.876-8.096 10.125-14.21 10.96-4.774.652-8.802-.444-12.206-3.157C27.787 96.913 8.242 78.137 7.051 54.1 5.807 28.984 25.076 7.636 50.091 6.42c25.015-1.217 46.302 18.157 47.547 43.274Z" clip-rule="evenodd"/>
    </symbol>
    <symbol id="recraftr-emblem-dark" viewBox="0 0 107 112">
      <path fill="currentcolor" d="M52.903 81.796c-1.854-5.424-1.765-9.628-1.478-12.335l3.265-.296c.5.595 1.145 1.504 1.782 2.64.969 1.729 1.602 3.427 1.704 4.538a2.754 2.754 0 0 0 2.993 2.492 2.753 2.753 0 0 0 2.494-2.99c-.205-2.252-1.275-4.752-2.383-6.728-.08-.143-.162-.286-.246-.429l2.278-.163c.256.216.5.413.722.59l.092.075.102.082c.543.438.983.811 1.415 1.28.823.892 1.823 2.36 2.91 5.543 1.112 3.252 1.678 6.612 1.18 9.267-.24 1.284-.715 2.33-1.433 3.153-.71.811-1.783 1.548-3.462 2.026-3.556 1.014-5.742.387-7.345-.898-1.803-1.445-3.296-4.059-4.59-7.847Z"/>
      <path fill="currentcolor" fill-rule="evenodd" d="M7.93 77.712A51.574 51.574 0 0 1 .93 54.152C-.477 25.736 21.337 1.448 49.831.061 71.85-1.01 91.252 11.917 99.58 30.961a51.572 51.572 0 0 1 6.999 23.559c.888 17.922-7.453 34.175-20.859 44.096-3.569 8.42-11.45 12.181-18.505 13.144-5.594.764-10.728-.297-15.159-3.181C32.398 107.405 15.54 95.114 7.93 77.712Zm7.483-23.818c.837 16.896 12.676 30.64 28.209 34.58 1.489 3.495 3.63 7.096 6.932 9.742l-1.46-.189C26.271 96.21 7.941 77.645 6.785 54.314 5.53 28.99 24.979 7.276 50.47 6.035c25.492-1.24 46.993 18.482 48.247 43.805.775 15.643-6.338 29.874-17.866 38.777 0 0-.386-.477-.243-1.238.638-3.41.377-6.865-.25-9.957a37.465 37.465 0 0 0 9.732-27.162c-1.026-20.706-18.575-36.678-39.196-35.675-20.622 1.004-36.508 18.603-35.482 39.309Zm60.764-10.307c-1.07-4.897-5.59-8.07-10.093-7.087-4.503.982-7.286 5.748-6.216 10.645 1.071 4.896 5.59 8.07 10.093 7.087 4.504-.983 7.287-5.749 6.216-10.645ZM40.046 53.982c-2.037.268-4.048.98-6.774 2.344a3.063 3.063 0 0 1-4.108-1.365 3.056 3.056 0 0 1 1.367-4.103c3.027-1.514 5.729-2.545 8.714-2.939 2.98-.393 6.02-.12 9.695.643a3.058 3.058 0 1 1-1.247 5.987c-3.314-.688-5.606-.837-7.647-.567Zm-5.804 8.707a2.145 2.145 0 0 0-2.583 2.278c.37 4.255 3.663 8.51 8.053 11.481a26.701 26.701 0 0 0 6.894 3.324 37.43 37.43 0 0 0 1.082 3.802c1.39 4.07 3.303 7.916 6.357 10.362 3.253 2.607 7.374 3.302 12.305 1.898 2.566-.731 4.604-1.988 6.1-3.7 1.489-1.702 2.316-3.71 2.7-5.76.75-4.012-.144-8.433-1.382-12.056a34.747 34.747 0 0 0-.796-2.115c1.527-1.759 2.733-3.606 3.555-5.35.895-1.898 1.464-3.953 1.192-5.713a2.14 2.14 0 0 0-2.854-1.684C62.93 63.82 45.343 65.058 34.242 62.69Z" clip-rule="evenodd"/>
    </symbol>
    <symbol id="recraftr-logo" viewBox="0 0 8221 1561">
      <path fill="currentcolor" d="M253.606 750.916c-22.198-255.578 167.231-480.738 423.1-502.91 255.869-22.172 481.284 167.04 503.484 422.618 9.62 110.78-20.52 215.845-78.59 301.142-8.08 15.133-17.63 30.294-28.47 45.154 10.22 29.98 19.64 65.52 23.86 103.16 121.9-113.1 192.2-279.163 176.71-457.559-26.68-307.162-297.594-534.564-605.106-507.917-307.513 26.647-535.175 297.253-508.497 604.415 22.637 260.631 221.123 463.841 468.605 503.141-13.759-25.87-24.446-52.7-33.163-78.21a594.563 594.563 0 0 1-8.473-26.85l-1.497-.61c-178.265-52.45-314.932-209.478-331.963-405.574Z"/>
      <path fill="currentcolor" d="M908.938 508.719c62.765-13.692 125.742 30.531 140.662 98.775 14.93 68.245-23.86 134.668-86.625 148.36-62.766 13.693-125.744-30.53-140.666-98.775-14.922-68.244 23.863-134.667 86.629-148.36ZM546.043 752.37c-28.39 3.742-56.421 13.675-94.413 32.677-21.068 10.537-46.7 2.019-57.25-19.026-10.549-21.044-2.022-46.647 19.047-57.184 42.189-21.101 79.846-35.48 121.452-40.964 41.542-5.476 83.901-1.681 135.121 8.961 23.069 4.792 37.88 27.357 33.081 50.4-4.798 23.042-27.389 37.836-50.457 33.044-46.187-9.596-78.129-11.659-106.581-7.908Z"/>
      <path fill="currentcolor" fill-rule="evenodd" d="M465.15 873.726a29.89 29.89 0 0 0-26.01 6.812 29.811 29.811 0 0 0-9.984 24.938c5.151 59.313 51.045 118.624 112.234 160.024 28.128 19.03 60.606 35.11 96.078 46.32 3.826 16.82 8.767 34.51 15.083 52.99 19.38 56.72 46.041 110.33 88.594 144.43 45.345 36.33 102.782 46.02 171.5 26.44 35.756-10.19 64.161-27.69 85.02-51.55 20.745-23.73 32.265-51.71 37.615-80.29 10.47-55.91-1.99-117.53-19.25-168.04-3.65-10.68-7.34-20.47-11.09-29.47 21.27-24.514 38.09-50.258 49.54-74.563 12.47-26.46 20.41-55.096 16.62-79.632a29.846 29.846 0 0 0-14.34-21.138 29.889 29.889 0 0 0-25.45-2.325c-166.324 60.824-411.444 78.079-566.16 45.054Zm260.08 266.314c-25.832-75.6-24.599-134.19-20.595-171.92l45.505-4.127c6.956 8.293 15.955 20.96 24.835 36.797 13.501 24.09 22.332 47.76 23.742 63.25 1.92 21.09 20.597 36.64 41.716 34.72 21.119-1.92 36.683-20.57 34.763-41.67-2.857-31.39-17.775-66.226-33.215-93.771a369.87 369.87 0 0 0-3.424-5.977l31.75-2.268c3.57 3.008 6.977 5.748 10.057 8.224l1.289 1.037 1.41 1.138c7.568 6.117 13.706 11.316 19.731 17.85 11.464 12.435 25.399 32.887 40.558 77.257 15.487 45.33 23.375 92.16 16.445 129.16-3.35 17.89-9.964 32.48-19.976 43.93-9.893 11.32-24.852 21.58-48.242 28.25-49.575 14.12-80.041 5.38-102.379-12.52-25.129-20.13-45.932-56.57-63.97-109.36Z" clip-rule="evenodd"/>
      <path fill="currentcolor" fill-rule="evenodd" d="M.899 754.736c5.934 119.772 40.795 231.422 97.53 328.374 106.08 242.54 341.025 413.85 615.017 430.21 61.752 40.2 133.306 54.98 211.274 44.34 98.32-13.43 208.16-65.84 257.9-183.2 186.84-138.28 303.09-364.81 290.71-614.591-5.93-119.753-40.8-231.398-97.53-328.356C1259.71 166.098 989.306-14.072 682.417.863 285.298 20.192-18.723 358.71.899 754.737ZM1348.7 692.592c11.37 229.45-100.09 436.338-276.42 556.438-29.94 95.82-112.836 141.11-198.039 152.75-66.54 9.08-122.683-6.19-170.118-44-328.936-7.05-601.334-268.75-617.932-603.744C68.847 403.97 337.409 106.431 686.041 89.464 1034.67 72.497 1331.36 342.527 1348.7 692.592Z" clip-rule="evenodd"/>
      <path fill="currentcolor" d="M6828.82 703.031h286.58v340.319c0 105.26 26.42 181.4 79.27 228.41 52.85 45.99 126.53 68.99 221.04 68.99h132.63v-222.28h-92.99c-28.46 0-48.78-5.63-60.98-16.87-12.19-11.24-18.29-29.63-18.29-55.18V703.031h170.73V485.349h-170.73V276.866H7115.4v208.483h-286.58v-7.664c0-44.967 10.16-76.138 30.49-93.511 20.33-17.374 55.39-24.528 105.19-21.462v-222.28c-9.15-1.022-23.38-1.533-42.69-1.533-115.86 0-203.77 27.593-263.73 82.78-59.96 54.165-89.94 133.879-89.94 239.143v24.527h-94.51v217.682h94.51v637.719h260.68V703.031ZM3710.74 801.141c0-106.286 22.87-200.819 68.6-283.599 45.73-83.802 109.25-148.698 190.55-194.687 82.32-47.011 175.32-70.517 278.98-70.517 127.03 0 235.78 33.726 326.23 101.176 90.45 67.451 150.92 159.429 181.41 275.935h-286.6c-21.34-44.968-51.83-79.204-91.46-102.709-38.62-23.506-82.83-35.259-132.63-35.259-80.29 0-145.33 28.105-195.13 84.314-49.8 56.208-74.7 131.324-74.7 225.346 0 94.022 24.9 169.138 74.7 225.349 49.8 56.21 114.84 84.31 195.13 84.31 49.8 0 94.01-11.75 132.63-35.26 39.63-23.5 70.12-57.74 91.46-102.706h286.6c-30.49 116.506-90.96 208.486-181.41 275.936-90.45 66.43-199.2 99.64-326.23 99.64-103.66 0-196.66-22.99-278.98-68.98-81.3-47.01-144.82-111.91-190.55-194.69-45.73-82.78-68.6-177.313-68.6-283.599Z"/>
      <path fill="currentcolor" fill-rule="evenodd" d="m2144.29 934.509 222.57 406.241h294.22l-246.96-426.169c78.25-23.506 137.2-63.363 176.83-119.572 40.65-56.209 60.98-120.082 60.98-191.621 0-63.363-14.74-120.593-44.21-171.692-29.47-52.121-74.19-93.001-134.15-122.638-58.94-29.637-130.59-44.456-214.95-44.456h-437.51V1340.75h260.68V934.509h62.5Zm99.09-185.489h-161.59V482.284h161.59c47.77 0 83.34 11.752 106.71 35.258 24.39 23.505 36.59 55.698 36.59 96.577 0 42.923-12.2 76.137-36.59 99.643-23.37 23.505-58.94 35.258-106.71 35.258ZM3612.85 975.899c3.05-26.571 4.58-52.12 4.58-76.648 0-85.846-18.3-160.962-54.88-225.346-35.57-64.385-85.37-113.951-149.4-148.698-64.03-34.748-137.2-52.121-219.52-52.121-84.35 0-159.05 17.884-224.09 53.654-65.04 35.769-115.86 86.868-152.45 153.296-35.57 66.429-53.35 144.1-53.35 233.012s18.29 166.582 54.88 233.012c36.58 66.43 87.4 117.53 152.44 153.3 65.05 35.77 139.24 53.65 222.57 53.65 69.11 0 131.61-12.78 187.51-38.32 55.89-25.55 102.14-60.81 138.72-105.78 37.61-44.97 63.52-95.55 77.75-151.76h-277.45c-25.41 55.18-70.63 82.78-135.68 82.78-43.7 0-80.79-13.8-111.28-41.39-29.47-28.62-46.24-69.5-50.31-122.641h589.96ZM3304.92 722.96c30.48 26.571 45.73 62.34 45.73 107.307h-326.23c7.11-47.011 25.41-83.291 54.88-108.84 30.49-25.55 67.58-38.325 111.28-38.325 45.74 0 83.85 13.286 114.34 39.858Z" clip-rule="evenodd"/>
      <path fill="currentcolor" d="M5247.85 517.542c-45.73 26.571-83.84 63.363-114.33 110.374V485.349h-260.68v855.401h260.68V943.707c0-70.516 16.26-119.571 48.78-147.165 32.52-28.615 81.3-42.923 146.34-42.923h71.65V476.152c-55.89 0-106.71 13.796-152.44 41.39Z"/>
      <path fill="currentcolor" fill-rule="evenodd" d="M5455.74 911.515c0-87.89 16.26-165.05 48.78-231.479 33.54-66.428 78.76-117.527 135.68-153.296 56.91-35.77 120.43-53.654 190.55-53.654 59.96 0 112.3 12.263 157.02 36.791 45.73 24.527 80.8 56.72 105.19 96.577V485.349h260.68v855.401h-260.68v-121.11c-25.41 39.86-60.98 72.05-106.71 96.58-44.72 24.53-97.06 36.79-157.02 36.79-69.11 0-132.12-17.88-189.03-53.65-56.92-36.8-102.14-88.41-135.68-154.83-32.52-67.45-48.78-145.125-48.78-233.015Zm637.22 1.533c0-65.407-18.3-117.017-54.88-154.83-35.57-37.813-79.27-56.72-131.11-56.72-51.83 0-96.04 18.907-132.62 56.72-35.57 36.791-53.36 87.89-53.36 153.297 0 65.406 17.79 117.525 53.36 156.365 36.58 37.81 80.79 56.72 132.62 56.72 51.84 0 95.54-18.91 131.11-56.72 36.58-37.82 54.88-89.426 54.88-154.832Z" clip-rule="evenodd"/>
      <path fill="currentcolor" d="M8068.56 517.542c-45.74 26.571-83.85 63.363-114.34 110.374V485.349h-260.68v855.401h260.68V943.707c0-70.516 16.26-119.571 48.78-147.165 32.53-28.615 81.31-42.923 146.35-42.923H8221V476.152c-55.9 0-106.71 13.796-152.44 41.39Z"/>
    </symbol>
    <symbol id="recraftr-typog" viewBox="0 0 460 88">
      <path fill="currentcolor" d="M359.954 40.476h20.562v24.417c0 7.553 1.896 13.016 5.688 16.389 3.792 3.3 9.079 4.95 15.86 4.95h9.516v-15.95h-6.672c-2.042 0-3.5-.403-4.375-1.209-.875-.807-1.313-2.126-1.313-3.96V40.476h12.251V24.858H399.22V9.899h-18.704v14.959h-20.562v-.55c0-3.227.729-5.463 2.188-6.71 1.458-1.246 3.974-1.76 7.547-1.54V.11c-.656-.073-1.677-.11-3.063-.11-8.313 0-14.62 1.98-18.923 5.94-4.302 3.886-6.453 9.605-6.453 17.158v1.76h-6.782v15.618h6.782V86.23h18.704V40.476Zm-223.726 7.039c0-7.626 1.641-14.408 4.922-20.348 3.281-6.013 7.839-10.669 13.673-13.968 5.906-3.373 12.578-5.06 20.016-5.06 9.115 0 16.918 2.42 23.408 7.26 6.49 4.839 10.828 11.438 13.016 19.797h-20.564c-1.531-3.226-3.719-5.682-6.562-7.369-2.771-1.686-5.943-2.53-9.517-2.53-5.76 0-10.427 2.017-14 6.05-3.573 4.033-5.36 9.422-5.36 16.168 0 6.746 1.787 12.136 5.36 16.169 3.573 4.032 8.24 6.049 14 6.049 3.574 0 6.746-.843 9.517-2.53 2.843-1.686 5.031-4.143 6.562-7.37h20.564c-2.188 8.36-6.526 14.96-13.016 19.799-6.49 4.766-14.293 7.15-23.408 7.15-7.438 0-14.11-1.65-20.016-4.95-5.834-3.373-10.392-8.03-13.673-13.969-3.281-5.94-4.922-12.722-4.922-20.348Z"/>
      <path fill="currentcolor" fill-rule="evenodd" d="m23.833 57.084 15.97 29.147h21.11l-17.72-30.577c5.616-1.686 9.845-4.546 12.689-8.579 2.917-4.033 4.375-8.616 4.375-13.748 0-4.547-1.057-8.653-3.172-12.32-2.115-3.739-5.323-6.672-9.626-8.798-4.229-2.127-9.37-3.19-15.422-3.19H.645v77.212h18.704V57.084h4.484Zm7.11-13.309H19.349V24.639h11.594c3.427 0 5.98.843 7.657 2.53 1.75 1.686 2.625 3.995 2.625 6.928 0 3.08-.875 5.463-2.625 7.15-1.678 1.686-4.23 2.53-7.657 2.53Zm98.261 16.279c.219-1.907.329-3.74.329-5.5 0-6.159-1.313-11.548-3.938-16.168-2.552-4.62-6.126-8.176-10.719-10.669-4.594-2.493-9.845-3.74-15.751-3.74-6.053 0-11.412 1.284-16.08 3.85-4.666 2.567-8.312 6.233-10.937 10.999-2.553 4.766-3.829 10.339-3.829 16.718 0 6.38 1.313 11.952 3.938 16.719 2.625 4.766 6.271 8.432 10.938 10.998 4.667 2.567 9.99 3.85 15.97 3.85 4.958 0 9.443-.916 13.454-2.75 4.01-1.833 7.328-4.362 9.953-7.589 2.698-3.226 4.558-6.856 5.579-10.889h-19.908c-1.823 3.96-5.068 5.94-9.735 5.94-3.135 0-5.797-.99-7.984-2.97-2.115-2.053-3.318-4.986-3.61-8.8h42.33Zm-22.095-18.148c2.188 1.906 3.282 4.473 3.282 7.699H86.983c.51-3.373 1.823-5.976 3.938-7.81 2.188-1.832 4.85-2.749 7.985-2.749 3.281 0 6.016.953 8.203 2.86Z" clip-rule="evenodd"/>
      <path fill="currentcolor" d="M246.517 27.167c-3.281 1.907-6.016 4.546-8.203 7.92v-10.23H219.61v61.374h18.704V57.744c0-5.06 1.167-8.579 3.5-10.559 2.333-2.053 5.834-3.08 10.501-3.08h5.14V24.198c-4.01 0-7.656.99-10.938 2.97Z"/>
      <path fill="currentcolor" fill-rule="evenodd" d="M261.434 55.434c0-6.306 1.166-11.842 3.5-16.608 2.406-4.766 5.651-8.432 9.735-10.999 4.083-2.566 8.641-3.85 13.672-3.85 4.303 0 8.058.88 11.267 2.64 3.281 1.76 5.797 4.07 7.547 6.93v-8.69h18.704v61.374h-18.704v-8.689c-1.823 2.86-4.375 5.17-7.657 6.93-3.208 1.76-6.964 2.64-11.266 2.64-4.959 0-9.48-1.284-13.563-3.85-4.084-2.64-7.329-6.343-9.735-11.11-2.334-4.839-3.5-10.412-3.5-16.718Zm45.721.11c0-4.692-1.313-8.395-3.938-11.108-2.552-2.714-5.688-4.07-9.407-4.07-3.719 0-6.891 1.356-9.516 4.07-2.552 2.64-3.828 6.306-3.828 10.998 0 4.693 1.276 8.433 3.828 11.22 2.625 2.712 5.797 4.069 9.516 4.069 3.719 0 6.855-1.357 9.407-4.07 2.625-2.713 3.938-6.416 3.938-11.109Z" clip-rule="evenodd"/>
      <path fill="currentcolor" d="M448.906 27.167c-3.281 1.907-6.015 4.546-8.203 7.92v-10.23h-18.704v61.374h18.704V57.744c0-5.06 1.167-8.579 3.5-10.559 2.334-2.053 5.834-3.08 10.501-3.08h5.14V24.198c-4.01 0-7.656.99-10.938 2.97Z"/>
    </symbol>
    <symbol id="colorful-brand-logo" viewBox="0 0 121 80">
      <g fill-rule="nonzero" stroke="#424349" stroke-width="2" fill="none">
        <path d="M69.872 72.986c14.024 9.254 32.89 5.95 43.106-7.607 10.645-14.125 7.823-34.205-6.303-44.85-11.75-8.854-27.928-8.516-39.258.543l-.613.49-.637-.46-2.51-1.813C49.594 9.99 30.64 13.217 20.443 26.748c-10.645 14.125-7.823 34.205 6.303 44.85 11.75 8.854 27.928 8.516 39.258-.543l.625-.5 3.243 2.431zm31.556-16.31c-5.838 7.746-16.85 9.293-24.595 3.456l-26.381-19.88-.315-.226a7.232 7.232 0 00-8.41 11.762l12.844 9.68-1.641.701a17.553 17.553 0 01-17.48-2.122c-7.746-5.838-9.294-16.85-3.457-24.595 5.837-7.747 16.849-9.294 24.595-3.457l26.381 19.88.315.226a7.232 7.232 0 008.41-11.762L78.85 30.66l1.641-.701a17.553 17.553 0 0117.48 2.122c7.746 5.838 9.294 16.85 3.457 24.595z" fill="#F3DF65"/>
        <path d="M65.874 68.989c14.025 9.254 32.891 5.95 43.107-7.607 10.644-14.125 7.822-34.205-6.303-44.85-11.75-8.854-27.928-8.516-39.258.542l-.614.49-.636-.459-2.51-1.813C45.597 5.993 26.64 9.22 16.445 22.75 5.801 36.876 8.623 56.956 22.748 67.6c11.75 8.854 27.928 8.516 39.259-.542l.624-.5 3.243 2.43zM97.43 52.678c-5.837 7.746-16.848 9.294-24.595 3.457l-26.38-19.88-.315-.226a7.232 7.232 0 00-8.41 11.761l12.844 9.681-1.642.7a17.553 17.553 0 01-17.48-2.122c-7.746-5.837-9.293-16.848-3.456-24.595 5.837-7.746 16.849-9.293 24.595-3.456l26.38 19.88.316.225a7.232 7.232 0 008.41-11.761l-12.845-9.68 1.642-.702a17.553 17.553 0 0117.48 2.123c7.746 5.837 9.293 16.849 3.456 24.595z" fill="#FFD2E5"/>
        <path d="M61.877 64.991c14.024 9.255 32.89 5.95 43.107-7.606 10.644-14.126 7.822-34.206-6.304-44.85-11.75-8.854-27.928-8.516-39.258.542l-.613.49-.637-.46-2.51-1.813C41.6 1.996 22.644 5.222 12.448 18.753 1.804 32.878 4.626 52.958 18.75 63.603c11.75 8.854 27.928 8.516 39.258-.542l.625-.5 3.243 2.43zm31.556-16.31c-5.837 7.746-16.849 9.293-24.595 3.456l-26.381-19.88-.315-.225a7.232 7.232 0 00-8.41 11.761l12.844 9.68-1.641.702a17.553 17.553 0 01-17.48-2.123C19.71 46.215 18.161 35.203 24 27.457 29.836 19.71 40.847 18.163 48.593 24l26.381 19.88.315.226a7.232 7.232 0 008.41-11.761l-12.844-9.681 1.642-.701a17.553 17.553 0 0117.48 2.123c7.746 5.837 9.293 16.848 3.456 24.595z" fill="#CEEED7"/>
        <path d="M57.88 60.994c14.024 9.254 32.89 5.95 43.106-7.607 10.644-14.125 7.822-34.205-6.303-44.85C82.933-.316 66.755.022 55.425 9.08l-.613.49-.637-.46-2.51-1.813C37.602-2.002 18.647 1.225 8.45 14.756-2.194 28.88.628 48.96 14.754 59.606c11.75 8.854 27.928 8.516 39.258-.543l.624-.5 3.244 2.431zm31.556-16.31c-5.838 7.745-16.85 9.293-24.595 3.456L38.46 28.26l-.315-.226a7.232 7.232 0 00-8.41 11.762l12.844 9.68-1.641.701a17.553 17.553 0 01-17.48-2.123C15.712 42.217 14.164 31.206 20 23.46c5.837-7.747 16.849-9.294 24.595-3.457l26.381 19.88.315.226a7.232 7.232 0 008.41-11.762l-12.844-9.68 1.641-.701a17.553 17.553 0 0117.48 2.122c7.746 5.838 9.294 16.849 3.457 24.595z" fill="#CAAFF7"/>
      </g>
    </symbol>  
    <symbol id="404-image" viewBox="0 0 359 184">
      <g transform="translate(4 4)" stroke="#424349" stroke-width="8" fill="none" fill-rule="evenodd">
        <circle fill="#FFD2E5" fill-rule="nonzero" cx="179" cy="88" r="79"/>
        <rect fill="#F3DF65" x="88" width="37" height="176" rx="18.5"/>
        <rect fill="#CEEED7" width="37" height="104" rx="18.5"/>
        <rect fill="#CAAFF7" transform="rotate(-90 62.5 88)" x="44" y="26" width="37" height="124" rx="18.5"/>
        <rect fill="#F3DF65" transform="rotate(-90 288.5 88)" x="270" y="26" width="37" height="124" rx="18.5"/>
        <rect fill="#CAAFF7" x="226" width="37" height="104" rx="18.5"/>
        <rect fill="#CEEED7" x="314" width="37" height="176" rx="18.5"/>
      </g>
    </symbol>
    <symbol id="403-image" viewBox="0 0 359 184">
      <g stroke="#424349" stroke-width="8" fill="none" fill-rule="evenodd">
        <circle fill="#FFD2E5" fill-rule="nonzero" cx="183" cy="92" r="79"/>
        <rect fill="#F3DF65" x="92" y="4" width="37" height="176" rx="18.5"/>
        <rect fill="#CEEED7" x="4" y="4" width="37" height="104" rx="18.5"/>
        <rect fill="#CAAFF7" transform="rotate(-90 66.5 92)" x="48" y="30" width="37" height="124" rx="18.5"/>
        <path d="M229.767 181.194c-9.281-4.274-13.34-15.261-9.067-24.542 4.225-9.175 15.013-13.247 24.225-9.208l.317.142c6.071 2.796 12.674 4.308 19.52 4.409l.783.005c26.765-.026 48.452-21.732 48.452-48.5 0-26.518-21.282-48.065-47.698-48.494l-.802-.006c-10.217 0-18.5-8.283-18.5-18.5s8.283-18.5 18.5-18.5c47.22 0 85.5 38.28 85.5 85.5 0 46.717-37.47 84.689-84.021 85.487l-1.48.013c-12.478 0-24.613-2.687-35.73-7.806z" id="Path" fill="#CEEED7" fill-rule="nonzero" transform="rotate(35 284.998 103.5)"/>
        <rect fill="#F3DF65" transform="rotate(-90 272.5 22)" x="254" y="-46" width="37" height="136" rx="18.5"/>
        <rect fill="#CAAFF7" transform="rotate(48 298.675 47.14)" x="280.175" y="-5.36" width="37" height="105" rx="18.5"/>
      </g>
    </symbol>
    <symbol id="icon-chevron-up" viewBox="0 0 20 20">
      <path fill-rule="evenodd" d="M14.707 12.707a1 1 0 01-1.414 0L10 9.414l-3.293 3.293a1 1 0 01-1.414-1.414l4-4a1 1 0 011.414 0l4 4a1 1 0 010 1.414z" clip-rule="evenodd"/>
    </symbol>
    <symbol id="icon-chevron-right" viewBox="0 0 20 20">
      <path fill-rule="evenodd" d="M7.293 14.707a1 1 0 010-1.414L10.586 10 7.293 6.707a1 1 0 011.414-1.414l4 4a1 1 0 010 1.414l-4 4a1 1 0 01-1.414 0z" clip-rule="evenodd"/>
    </symbol>
    <symbol id="icon-chevron-down" viewBox="0 0 20 20">
      <path fill-rule="evenodd" d="M5.293 7.293a1 1 0 011.414 0L10 10.586l3.293-3.293a1 1 0 111.414 1.414l-4 4a1 1 0 01-1.414 0l-4-4a1 1 0 010-1.414z" clip-rule="evenodd"/>
    </symbol>
    <symbol id="icon-chevron-left" viewBox="0 0 20 20">
      <path fill-rule="evenodd" d="M12.707 5.293a1 1 0 010 1.414L9.414 10l3.293 3.293a1 1 0 01-1.414 1.414l-4-4a1 1 0 010-1.414l4-4a1 1 0 011.414 0z" clip-rule="evenodd"/>
    </symbol>
    <symbol id="icon-printer" viewBox="0 0 20 20">
      <path fill-rule="evenodd" d="M5 4v3H4a2 2 0 00-2 2v3a2 2 0 002 2h1v2a2 2 0 002 2h6a2 2 0 002-2v-2h1a2 2 0 002-2V9a2 2 0 00-2-2h-1V4a2 2 0 00-2-2H7a2 2 0 00-2 2zm8 0H7v3h6V4zm0 8H7v4h6v-4z" clip-rule="evenodd"/>
    </symbol>
    <symbol id="icon-calendar" viewBox="0 0 20 20">
      <path fill-rule="evenodd" d="M6 2a1 1 0 00-1 1v1H4a2 2 0 00-2 2v10a2 2 0 002 2h12a2 2 0 002-2V6a2 2 0 00-2-2h-1V3a1 1 0 10-2 0v1H7V3a1 1 0 00-1-1zm0 5a1 1 0 000 2h8a1 1 0 100-2H6z" clip-rule="evenodd"/>
    </symbol>
    <symbol id="icon-x" viewBox="0 0 20 20">
      <path fill-rule="evenodd" d="M4.293 4.293a1 1 0 011.414 0L10 8.586l4.293-4.293a1 1 0 111.414 1.414L11.414 10l4.293 4.293a1 1 0 01-1.414 1.414L10 11.414l-4.293 4.293a1 1 0 01-1.414-1.414L8.586 10 4.293 5.707a1 1 0 010-1.414z" clip-rule="evenodd"/>
    </symbol>
    <symbol id="icon-user" viewBox="0 0 20 20">
      <path fill-rule="evenodd" d="M10 9a3 3 0 100-6 3 3 0 000 6zm-7 9a7 7 0 1114 0H3z" clip-rule="evenodd"/>
    </symbol>
    <symbol id="icon-map-marker" viewBox="0 0 20 20">
      <path fill-rule="evenodd" d="M5.05 4.05a7 7 0 119.9 9.9L10 18.9l-4.95-4.95a7 7 0 010-9.9zM10 11a2 2 0 100-4 2 2 0 000 4z" clip-rule="evenodd"/>
    </symbol>
    <symbol id="icon-pencil" viewBox="0 0 20 20">
      <path d="M13.586 3.586a2 2 0 112.828 2.828l-.793.793-2.828-2.828.793-.793zm-2.207 2.207L3 14.172V17h2.828l8.38-8.379-2.83-2.828z"/>
    </symbol>
    <symbol id="icon-pencil" viewBox="0 0 20 20">
      <path d="M13.586 3.586a2 2 0 112.828 2.828l-.793.793-2.828-2.828.793-.793zm-2.207 2.207L3 14.172V17h2.828l8.38-8.379-2.83-2.828z"/>
    </symbol>
    <symbol id="icon-reply" viewBox="0 0 20 20">
      <path fill-rule="evenodd" d="M7.707 3.293a1 1 0 010 1.414L5.414 7H11a7 7 0 017 7v2a1 1 0 11-2 0v-2a5 5 0 00-5-5H5.414l2.293 2.293a1 1 0 11-1.414 1.414l-4-4a1 1 0 010-1.414l4-4a1 1 0 011.414 0z" clip-rule="evenodd"/>
    </symbol>
    <symbol id="icon-dots-vertical" viewBox="0 0 20 20">
      <path d="M10 6a2 2 0 110-4 2 2 0 010 4zm0 6a2 2 0 110-4 2 2 0 010 4zm0 6a2 2 0 110-4 2 2 0 010 4z"/>
    </symbol>
    <symbol id="icon-star" viewBox="0 0 20 20">
      <path d="M9.049 2.927c.3-.921 1.603-.921 1.902 0l1.07 3.292a1 1 0 00.95.69h3.462c.969 0 1.371 1.24.588 1.81l-2.8 2.034a1 1 0 00-.364 1.118l1.07 3.292c.3.921-.755 1.688-1.54 1.118l-2.8-2.034a1 1 0 00-1.175 0l-2.8 2.034c-.784.57-1.838-.197-1.539-1.118l1.07-3.292a1 1 0 00-.364-1.118L2.98 8.72c-.783-.57-.38-1.81.588-1.81h3.461a1 1 0 00.951-.69l1.07-3.292z" />
    </symbol>
    <symbol id="icon-pencil" viewBox="0 0 20 20">
      <path d="M13.586 3.586a2 2 0 112.828 2.828l-.793.793-2.828-2.828.793-.793zm-2.207 2.207L3 14.172V17h2.828l8.38-8.379-2.83-2.828z"/>
    </symbol>
    <symbol id="icon-user" viewBox="0 0 20 20">
      <path fill-rule="evenodd" d="M10 9a3 3 0 100-6 3 3 0 000 6zm-7 9a7 7 0 1114 0H3z" clip-rule="evenodd"/>
    </symbol>
    <symbol id="icon-map-marker" viewBox="0 0 20 20">
      <path fill-rule="evenodd" d="M5.05 4.05a7 7 0 119.9 9.9L10 18.9l-4.95-4.95a7 7 0 010-9.9zM10 11a2 2 0 100-4 2 2 0 000 4z" clip-rule="evenodd"/>
    </symbol>
    <symbol id="icon-x-circle" viewBox="0 0 20 20">
      <path fill-rule="evenodd" d="M10 18a8 8 0 100-16 8 8 0 000 16zM8.707 7.293a1 1 0 00-1.414 1.414L8.586 10l-1.293 1.293a1 1 0 101.414 1.414L10 11.414l1.293 1.293a1 1 0 001.414-1.414L11.414 10l1.293-1.293a1 1 0 00-1.414-1.414L10 8.586 8.707 7.293z" clip-rule="evenodd" />
    </symbol>
    <symbol id="icon-filter" viewBox="0 0 20 20">
      <path fill-rule="evenodd" d="M3 3a1 1 0 011-1h12a1 1 0 011 1v3a1 1 0 01-.293.707L12 11.414V15a1 1 0 01-.293.707l-2 2A1 1 0 018 17v-5.586L3.293 6.707A1 1 0 013 6V3z" clip-rule="evenodd"/>
    </symbol>
  
    <symbol id="icon-badge-check" viewBox="0 0 24 24">
      <path fill-rule="evenodd" d="M6.267 3.455a3.066 3.066 0 001.745-.723 3.066 3.066 0 013.976 0 3.066 3.066 0 001.745.723 3.066 3.066 0 012.812 2.812c.051.643.304 1.254.723 1.745a3.066 3.066 0 010 3.976 3.066 3.066 0 00-.723 1.745 3.066 3.066 0 01-2.812 2.812 3.066 3.066 0 00-1.745.723 3.066 3.066 0 01-3.976 0 3.066 3.066 0 00-1.745-.723 3.066 3.066 0 01-2.812-2.812 3.066 3.066 0 00-.723-1.745 3.066 3.066 0 010-3.976 3.066 3.066 0 00.723-1.745 3.066 3.066 0 012.812-2.812zm7.44 5.252a1 1 0 00-1.414-1.414L9 10.586 7.707 9.293a1 1 0 00-1.414 1.414l2 2a1 1 0 001.414 0l4-4z" clip-rule="evenodd" />
    </symbol>
    <symbol id="icon-download" viewBox="0 0 20 20">
      <path fill-rule="evenodd" d="M3 17a1 1 0 011-1h12a1 1 0 110 2H4a1 1 0 01-1-1zm3.293-7.707a1 1 0 011.414 0L9 10.586V3a1 1 0 112 0v7.586l1.293-1.293a1 1 0 111.414 1.414l-3 3a1 1 0 01-1.414 0l-3-3a1 1 0 010-1.414z" clip-rule="evenodd" />
    </symbol>
    <symbol id="icon-refresh" viewBox="0 0 20 20">
      <path fill-rule="evenodd" d="M4 2a1 1 0 011 1v2.101a7.002 7.002 0 0111.601 2.566 1 1 0 11-1.885.666A5.002 5.002 0 005.999 7H9a1 1 0 010 2H4a1 1 0 01-1-1V3a1 1 0 011-1zm.008 9.057a1 1 0 011.276.61A5.002 5.002 0 0014.001 13H11a1 1 0 110-2h5a1 1 0 011 1v5a1 1 0 11-2 0v-2.101a7.002 7.002 0 01-11.601-2.566 1 1 0 01.61-1.276z" clip-rule="evenodd" />
    </symbol>
    <symbol id="icon-dash" viewBox="0 0 20 20">
      <path d="M5.555 17.776l8-16 .894.448-8 16-.894-.448z" />
    </symbol>
    <symbol id="icon-minus" viewBox="0 0 20 20">
      <path fill-rule="evenodd" d="M3 10a1 1 0 011-1h12a1 1 0 110 2H4a1 1 0 01-1-1z" clip-rule="evenodd" />
    </symbol>
    <symbol id="icon-minus-sm" viewBox="0 0 20 20">
      <path fill-rule="evenodd" d="M5 10a1 1 0 011-1h8a1 1 0 110 2H6a1 1 0 01-1-1z" clip-rule="evenodd" />
    </symbol>
    <symbol id="icon-minus-circle" viewBox="0 0 20 20">
      <path fill-rule="evenodd" d="M10 18a8 8 0 100-16 8 8 0 000 16zM7 9a1 1 0 000 2h6a1 1 0 100-2H7z" clip-rule="evenodd" />
    </symbol>
    <symbol id="icon-dots-circle-horizontal" viewBox="0 0 20 20">
      <path fill-rule="evenodd" d="M10 18a8 8 0 100-16 8 8 0 000 16zM7 9H5v2h2V9zm8 0h-2v2h2V9zM9 9h2v2H9V9z" clip-rule="evenodd" />
    </symbol>
  </defs>
</svg>
