
<svg xmlns="http://www.w3.org/2000/svg" xmlns:xlink="http://www.w3.org/1999/xlink">
  <defs>
    <symbol id="icon-caret-right" viewBox="0 0 20 20">
      <path fill-rule="evenodd" d="M7.293 14.707a1 1 0 010-1.414L10.586 10 7.293 6.707a1 1 0 011.414-1.414l4 4a1 1 0 010 1.414l-4 4a1 1 0 01-1.414 0z" clip-rule="evenodd"/>
    </symbol>
    <symbol id="icon-hamburguer-yum" viewBox="0 0 20 20">
      <path d="M20 15a1 1 0 010 2H4a1 1 0 010-2h16zm0-4a1 1 0 010 2H4a1 1 0 010-2h16zm0-4a1 1 0 010 2H4a1 1 0 110-2h16z" fill="currentcolor"/>
    </symbol>
    <symbol id="icon-marketplace" viewBox="0 0 18 18">
      <path d="M3 8v5h12V8h2v7.995A2 2 0 0115.006 18H2.994A1.997 1.997 0 011 15.995V8h2zm11.993-8c.556 0 1.206.398 1.45.888L18 4v1l-.025.16A2.274 2.274 0 0115.75 7c-1.1 0-2.019-.791-2.225-1.84L13.5 5l-.025.16A2.274 2.274 0 0111.25 7c-1.1 0-2.019-.791-2.225-1.84L9 5l-.025.16A2.274 2.274 0 016.75 7c-1.1 0-2.019-.791-2.225-1.84L4.5 5l-.025.16A2.274 2.274 0 012.25 7C1.15 7 .231 6.209.025 5.16L0 5V4L1.556.888C1.801.398 2.45 0 3.006 0h11.987z" fill="currentcolor"/>
    </symbol>
    <symbol id="icon-currency-dollar" viewBox="0 0 24 24">
      <path stroke-linecap="round" stroke-linejoin="round" d="M12 6v12m-3-2.818l.879.659c1.171.879 3.07.879 4.242 0 1.172-.879 1.172-2.303 0-3.182C13.536 12.219 12.768 12 12 12c-.725 0-1.45-.22-2.003-.659-1.106-.879-1.106-2.303 0-3.182s2.9-.879 4.006 0l.415.33M21 12a9 9 0 11-18 0 9 9 0 0118 0z" stroke="currentcolor" fill="none" stroke-width="1.5"  />
    </symbol>
    <symbol id="divider-swash" viewBox="0 0 13 150">
      <path d="M12.0001 0.499716C11.9965 1.30593 12.0796 2.16215 12.076 2.96837C12.2238 19.9124 4.59284 43 6.09283 58.5C7.59283 74 6.34886 105.383 10.0052 131.05C10.7033 135.841 11.4514 140.546 12.1995 145.25C12.3325 146.019 12.4289 146.652 12.4753 147.372C12.5949 148.365 12.4547 149.208 11.4485 149.551C10.4423 149.893 9.67633 149.22 9.32003 148.437C8.75403 147.417 8.23803 146.311 7.9952 145.132C7.25334 141.817 6.47488 138.365 6.09283 135.027C1.37425 97.1995 3.00024 74 0.500239 58.5C-1.99976 43 10.9348 8.54491 11.2367 2.02196C11.3135 1.48895 11.3903 0.955924 11.4171 0.509513C11.5537 0.472911 11.7769 0.486317 12.0001 0.499716Z" fill="currentcolor"/>
    </symbol>
    <symbol id="icon-arrow-path-rounded" viewBox="0 0 24 24">
      <path stroke-linecap="round" stroke-linejoin="round" d="M19.5 12c0-1.232-.046-2.453-.138-3.662a4.006 4.006 0 00-3.7-3.7 48.678 48.678 0 00-7.324 0 4.006 4.006 0 00-3.7 3.7c-.017.22-.032.441-.046.662M19.5 12l3-3m-3 3l-3-3m-12 3c0 1.232.046 2.453.138 3.662a4.006 4.006 0 003.7 3.7 48.656 48.656 0 007.324 0 4.006 4.006 0 003.7-3.7c.017-.22.032-.441.046-.662M4.5 12l3 3m-3-3l-3 3" stroke="currentcolor" fill="none" stroke-width="1.5"  />
    </symbol>
    <symbol id="il-revamped-img" viewBox="0 0 57 38">
      <title>Revamped image</title>
      <path fill="currentcolor" d="M44.457 3.483c.14-.279 1.254-1.161 2.51-1.95v-.047C48.173.696 49.335 0 49.474 0c.14 0 .512.186.837.372.418.232.465.743.232 1.671-.186.743-1.208 2.09-2.23 2.926-1.116.929-2.184 1.44-2.696 1.3-.418-.139-.929-.696-1.068-1.3-.186-.557-.186-1.254-.093-1.486ZM3.657 2.6c-.14-.557 0-1.067.372-1.253.325-.186.65-.372.697-.372.093 0 .604.232 1.162.511.604.279 1.533.975 2.137 1.533.604.557 1.023 1.532 1.023 2.229 0 .743-.326 1.44-.697 1.625-.512.279-1.302-.186-2.603-1.486-1.022-1.022-1.951-2.275-2.09-2.786Zm24.953 9.243c-1.394.557-1.58.836-1.533 2.183.046.836.418 1.997.79 2.554.511.79 1.162 1.068 2.323 1.068 1.162 0 1.813-.279 2.324-1.068.372-.557.697-1.393.697-1.858 0-.418-.558-1.44-1.301-2.182-.697-.79-1.348-1.393-1.487-1.393-.14.046-.93.325-1.813.696Z"/>
      <path fill="currentcolor" fill-rule="evenodd" d="M11.278 7.013c-.232.65-.372 6.269-.279 13.235.14 10.17.326 12.353.976 13.793.418.975 1.255 2.09 1.859 2.461.883.604 2.649.697 11.942.558 8.318-.14 11.525-.372 13.476-.976 1.394-.418 2.835-1.021 3.16-1.3.325-.325.79-2.461 1.023-4.783.232-2.322.65-5.248.882-6.502.233-1.3.605-4.83.79-7.895l.372-5.573c-2.137-2.043-3.764-2.926-5.065-3.25-1.673-.465-6.04-.697-15.52-.79l-13.151-.14-.465 1.162Zm3.207 12.584c-.186-.185-.325-2.461-.325-5.108V9.752h12.314c9.897 0 12.64.14 15.567 1.393v3.483c0 1.904-.233 3.576-.465 3.715-.232.14-1.115-.092-1.859-.464-.743-.372-2.044-.697-2.788-.697-.743 0-2.184.372-3.113.883-.976.464-2.417 1.672-4.647 4.458l-2.277-1.765c-1.255-.975-3.02-2.09-3.904-2.461-.882-.372-2.276-.65-3.02-.65-.743 0-2.23.51-3.253 1.16-1.022.605-2.044.976-2.23.79Zm1.208 5.248c.558-1.022 1.766-2.322 2.649-2.926.836-.557 1.812-1.021 2.09-1.021.233 0 1.534.65 2.789 1.44 1.301.789 4.182 3.297 6.413 5.572 2.23 2.276 4.368 4.087 4.74 4.087.418 0 .929-.51 1.161-1.161.279-.604.372-1.393.232-1.718-.139-.325-1.068-1.161-2.09-1.858-1.023-.697-1.86-1.579-1.86-1.997 0-.371.79-1.486 1.766-2.508 1.348-1.44 2.092-1.857 3.346-1.857 1.208-.047 1.998.325 2.928 1.254 1.161 1.16 1.3 1.532 1.069 3.483l-.229 1.953-.002.014-.003.027c-.13 1.108-.297 2.532-.51 4.368l-2.881.743c-2.277.557-5.065.697-22.445.418l-.092-3.25c-.093-2.648.046-3.577.929-5.063Z" clip-rule="evenodd"/>
      <path fill="currentcolor" d="M50.637 11.006c-1.255.604-2.277 1.394-2.23 1.719.046.278.51.975 1.022 1.486l.976.929c2.974-1.44 4.136-2.322 4.46-2.926.326-.557.512-1.347.419-1.718-.14-.372-.743-.697-1.301-.697-.558.046-2.091.557-3.346 1.207ZM.312 12.307c.325-.325.975-.65 1.487-.743.51-.093 1.672-.047 2.555.093.93.139 2.23.603 2.928 1.068.697.418 1.301.975 1.301 1.254 0 .232-.744.65-1.626.928-.883.233-2.417.325-3.393.186-.929-.093-2.23-.696-2.788-1.254-.883-.836-.976-1.114-.464-1.532Zm2.044 10.31c.232-.511 1.44-1.394 2.742-1.951 1.254-.604 2.51-1.068 2.788-1.068.232-.046.743.14 1.162.371.557.372.557.65.093 1.765-.326.743-1.302 1.626-2.324 2.09-.976.464-2.044.836-2.416.836-.418 0-1.115-.232-1.58-.557-.558-.418-.697-.883-.465-1.486Zm47.352-.651c-.744.233-1.348.743-1.255 1.115.047.372.79.975 1.72 1.347.882.371 1.951.696 2.416.696.465.047 1.394-.464 2.137-1.021l1.348-1.069c-1.72-1.3-2.835-1.625-3.578-1.625-.79.047-2.045.279-2.788.557Z"/>
    </symbol>
    <symbol id="il-subscribe-plan" viewBox="0 0 67 30">
      <title>Subscribe to plan</title>
      <path fill="currentcolor" fill-rule="evenodd" d="M29.275 2.144c.372-.233 2.881-.836 5.577-1.347 4.135-.79 6.645-.883 29.321-.743l1.209 1.393c1.068 1.3 1.161 1.672.929 4.876-.093 1.904-.604 7.013-1.069 11.285-.743 6.223-1.115 8.034-1.812 8.963-.604.743-1.998 1.44-3.718 1.904-1.951.558-4.647.79-8.829.79-3.346 0-8.132-.279-10.688-.604-2.555-.325-5.715-.79-6.97-1.068-1.301-.279-2.742-.836-3.206-1.254-.511-.418-1.301-1.579-1.766-2.6-.697-1.58-.837-3.066-.837-9.289 0-4.226.28-8.405.558-9.66.325-1.207.883-2.414 1.301-2.646Zm2.928 3.436c.093-.279 1.627-.836 3.392-1.254 2.51-.604 5.67-.79 14.684-.79 7.25-.046 11.618.14 11.757.418.14.279-.047.604-.418.79-.326.232-2.324 2.368-4.415 4.783-2.09 2.415-4.786 5.201-5.994 6.177-1.208.975-2.603 1.904-3.114 2.043-.557.14-2.37-.51-4.786-1.765-2.137-1.114-4.88-2.786-6.04-3.668-1.209-.93-2.882-2.694-3.718-3.948-.79-1.3-1.44-2.554-1.348-2.786Zm27.23 6.826c-1.626 1.858-3.903 4.226-5.064 5.341-1.116 1.068-2.788 2.276-3.718 2.74-1.022.465-2.37.697-3.717.557-1.348-.139-3.485-.975-6.227-2.507-2.277-1.254-5.437-3.483-6.97-4.97-1.534-1.486-2.882-2.693-2.928-2.693-.093 0-.14 1.95-.14 4.319 0 2.368.186 5.108.372 6.083.186 1.115.697 1.997 1.255 2.276.511.232 2.835.743 5.112 1.115 2.323.371 7.016.79 10.455.928 4.554.233 7.11.14 9.294-.325 1.673-.371 3.392-1.021 3.857-1.486.604-.603.79-1.579.79-3.715.046-1.579.279-4.644.604-6.78.325-2.09.418-3.948.279-4.04-.186-.093-1.627 1.3-3.253 3.157Z" clip-rule="evenodd"/>
      <path fill="currentcolor" d="M5.39 6.416c-.418.325-.697.929-.557 1.3.14.372.697.976 1.3 1.3.744.419 2.882.558 7.482.465 5.53-.14 6.552-.278 6.97-.929.419-.65.372-.975-.278-1.625-.697-.697-1.859-.836-7.435-.975-4.926-.093-6.831 0-7.482.464ZM5.344 17.33c-.511.093-1.44.418-1.998.743-.604.325-1.069.836-1.069 1.114 0 .325.465.836.976 1.068.511.233 2.51.465 4.507.418 1.998 0 5.065-.278 6.878-.603 1.765-.325 3.81-.836 4.507-1.161.697-.279 1.301-.65 1.301-.883 0-.186-.79-.464-1.766-.65-.975-.186-4.135-.325-7.063-.325-2.974.047-5.762.14-6.273.279Zm3.02 8.266c-1.951.279-4.6.883-5.948 1.3C1.07 27.314 0 27.918 0 28.15c0 .233.976.604 2.184.79 1.208.14 3.16.278 4.322.278 1.115 0 3.531-.278 5.344-.557 2.184-.371 3.578-.836 4.321-1.579 1.069-.975 1.115-1.021.233-1.625-.465-.325-1.673-.558-2.696-.511-1.022.046-3.438.325-5.344.65Z"/>
    </symbol>
    <symbol id="il-iteration" viewBox="0 0 87 29">
    <title>Satisfaction iteration process</title>
      <path fill="currentcolor" d="M66.951.51c-.51.233-.882.651-.836.883.046.279.418 1.208.79 2.09.465 1.084 1.007 1.625 1.626 1.625.79 0 .93-.325.93-1.996 0-1.069-.233-2.23-.558-2.555C68.578.232 68.206 0 68.067 0c-.14 0-.65.232-1.116.51Zm13.848 2.927c-.511.325-1.022 1.16-1.115 1.81-.233 1.022-.093 1.255.79 1.255.697 0 1.254-.465 1.766-1.394.557-1.16.557-1.486.046-1.857-.403-.31-.898-.248-1.487.186ZM61.468 5.062c-.046-.418.093-.882.325-1.022.186-.185.604-.325.883-.325.28 0 .744.232 1.07.558.324.325.603.928.603 1.3 0 .371-.279.975-.604 1.254-.465.464-.743.418-1.394-.232-.465-.418-.883-1.115-.883-1.533Zm6.599 4.691c.743 0 2.137-.511 3.067-1.161.929-.65 2.37-1.162 3.16-1.162s1.905.326 2.462.697c.883.557 1.023 1.115 1.023 3.112 0 1.857-.326 3.018-1.348 4.783a154.538 154.538 0 0 0-2.556 4.505c-.65 1.254-1.394 2.322-1.626 2.461-.279.14-1.766-.882-3.346-2.23a73.003 73.003 0 0 1-4.229-3.807c-.743-.743-1.44-1.904-1.58-2.554-.139-.65-.139-1.626 0-2.23.186-.603.976-1.3 1.952-1.718.883-.371 2.23-.696 3.02-.696Zm16.031-1.301a47.95 47.95 0 0 1-.544.291l-.002.001c-.259.137-.447.237-.476.265-.038.038-.137.414-.273.927v.005l-.099.369c-.232 1.16-.093 1.3.883 1.3.604 0 1.487-.371 1.905-.836.419-.418.697-1.207.605-1.672-.093-.51-.372-.975-.605-1.021-.278-.093-.883.093-1.394.371Zm-32.435 3.065c-.046-.418.279-.836.744-.929.51-.092 1.208-.046 1.626.14.418.186 1.627 1.254 2.742 2.368 1.069 1.115 1.951 2.369 1.951 2.787 0 .464-.232 1.3-.51 1.857-.28.604-1.302 1.997-2.185 3.158-.93 1.161-1.951 2.369-2.37 2.694-.418.325-.883.557-1.068.557-.186 0-.651-.51-1.023-1.16-.65-1.07-.65-1.255.233-2.323.51-.65.836-1.3.743-1.532-.14-.186-1.905-.465-3.95-.697-3.345-.279-3.857-.465-4.46-1.486-.419-.65-.605-1.393-.465-1.626.093-.278 2.137-.464 4.553-.464 2.37 0 4.462-.14 4.647-.372.14-.185-.046-.743-.418-1.253-.372-.511-.743-1.3-.79-1.719Zm-30.576.65c0 .836.325 1.858.697 2.23.557.51.604.835.232 1.16-.279.233-2.091.558-3.996.697-2.602.186-3.625.418-3.764.929-.14.372 0 1.161.279 1.718.51 1.022.743 1.068 4.507.836 2.37-.14 3.996-.046 4.182.232.093.233-.093.836-.464 1.254-.372.465-.697 1.626-.697 2.555 0 1.114.186 1.764.557 1.764.325 0 1.022-.464 1.58-1.021.558-.604 1.952-2.462 3.16-4.227 1.162-1.718 2.138-3.529 2.138-4.04 0-.65-1.116-1.672-3.393-3.25-1.858-1.255-3.717-2.323-4.182-2.323-.604 0-.836.372-.836 1.486ZM32.24 13.84c.51-.697 1.58-1.487 2.462-1.719.837-.232 1.952-.325 2.463-.186.35.095.872.277 1.346.442.22.077.43.15.606.208.557.233 1.347.883 1.765 1.44.372.604.698 1.718.744 2.461.046.743-.093 1.904-.279 2.555-.186.65-.79 1.625-1.348 2.229-.743.743-1.533 1.021-2.834 1.021-1.022 0-2.37-.325-2.928-.696-.557-.372-1.44-1.533-1.951-2.554-.511-1.022-.976-2.322-.976-2.926 0-.557.418-1.58.93-2.276ZM.036 13.56c-.092.326 0 2.37.186 4.552.168 1.575.384 3.296.526 4.428l.002.01v.003l.002.02c.053.42.096.758.12.972.233 1.486.326 1.533 2.603 1.533 1.255 0 3.346-.232 4.647-.465 1.44-.278 2.602-.835 3.16-1.532.743-.929.743-1.393.325-4.97-.279-2.182-.65-4.225-.836-4.55-.233-.372-1.859-.558-5.437-.558-3.625 0-5.112.186-5.298.558Zm79.044 6.41c-.511-.65-.79-1.44-.604-1.765.139-.279.883-.558 1.533-.558.697 0 1.673.233 2.138.558.51.371.79 1.021.697 1.764-.14.93-.419 1.162-1.487 1.162-.883 0-1.673-.419-2.277-1.162Zm-17.658 2.879c.418-.697 1.022-1.393 1.254-1.58.28-.185.79-.37 1.209-.37.371-.047.929.232 1.254.556.418.465.325 1.022-.557 2.694-.605 1.161-1.395 2.322-1.813 2.554-.465.325-.883.279-1.44-.232-.419-.371-.744-1.068-.744-1.532 0-.418.372-1.347.837-2.09Zm12.918.696c-.232.14-.372.558-.325.93.046.324.604 1.253 1.254 1.996.604.743 1.348 1.393 1.627 1.393.232 0 .697-.51 1.022-1.114.511-.976.465-1.347-.232-2.322-.465-.743-1.255-1.208-1.906-1.208-.604 0-1.254.14-1.44.325Zm-7.017 4.087c-.465-.65-.511-1.16-.186-1.765.28-.464 1.023-.79 1.859-.79 1.162 0 1.394.187 1.394 1.162 0 .79-.418 1.347-1.255 1.718-1.022.511-1.254.511-1.812-.325Z"/>
    </symbol>    
    <symbol id="il-repurposing-board" viewBox="0 0 50 28">
      <title>Repurposing board</title>
      <path fill="currentcolor" fill-rule="evenodd" d="M25.995.65c-.836.65-.93 1.347-1.022 12.91-.14 11.193-.047 12.307.697 13.05.65.65 1.58.836 4.647.79 2.57 0 3.965-.186 4.182-.557.186-.325.557-6.363.883-13.375.279-7.013.418-12.91.325-13.096C35.614.139 33.616 0 31.246 0c-2.974 0-4.6.186-5.251.65Zm2.138 17.508c0-3.019.14-7.477.325-9.985l.279-4.551h3.578v7.57c0 4.133-.14 8.638-.697 12.446l-3.485-.047v-5.433ZM13.31 1.997c.278-.279 1.3-.604 2.183-.743.93-.093 2.881-.186 7.063-.325v12.446c0 9.102-.14 12.539-.557 13.003-.372.325-1.905.558-4.182.558-3.253 0-3.718-.093-4.369-1.022-.557-.883-.697-3.019-.65-12.214 0-7.663.14-11.331.511-11.703Zm2.787 21.64V4.598h3.718v7.988c0 4.412-.186 8.73-.372 9.567-.279 1.346-.51 1.486-3.346 1.486ZM4.34 2.276c-2.23.418-4.182.836-4.275.975-.139.14-.046 3.994.186 8.591.233 4.598.558 9.428.697 10.682.14 1.3.419 2.554.605 2.879.185.325 1.998.697 4.507.882 3.764.279 4.229.233 4.74-.557.464-.65.604-3.808.604-12.12 0-10.822-.047-11.286-.93-11.75-.51-.233-1.208-.465-1.533-.418-.325.046-2.416.418-4.6.836Zm1.023 3.39-2.51.417c.512 3.715.837 7.43 1.023 10.728l.372 5.898h3.95c.372-13.19.325-17.044.093-17.183-.233-.14-1.534-.093-2.928.14Z" clip-rule="evenodd"/>
      <path fill="currentcolor" d="M42.77 7.71c-.232.185-.372 1.346-.325 2.6.046 2.043-.047 2.229-.976 2.229-.558 0-1.301.186-1.626.372-.372.185-.512.789-.372 1.625.186.929.604 1.347 1.673 1.625 1.115.232 1.394.558 1.347 1.486 0 .65.419 1.672.93 2.322.93 1.162.976 1.162 1.673.233.371-.511.697-1.626.697-2.415 0-1.347.14-1.533 1.161-1.533.744 0 1.395-.418 1.86-1.16.37-.651.557-1.487.464-1.858-.186-.465-.837-.697-1.859-.697h-1.626c-.233-4.69-.372-4.876-1.44-5.016-.651-.093-1.348 0-1.58.186Z"/>
    </symbol>
    <symbol id="il-superfast-delivery" viewBox="0 0 84 41">
      <title>Super fast delivery</title>
      <path fill="currentcolor" fill-rule="evenodd" d="M51.5 9c-.738 1.704 3.417 2.971 5.072 3.202 1.13.184 2.496.966 3.91 2.254 1.224 1.058 2.59 2.852 3.061 3.91.11.226.221.48.337.746.481 1.105 1.055 2.423 2.102 2.822 1.3.495 2.537-1.938 2.79-2.877.193-.754.323-1.554.44-2.284.171-1.051.318-1.956.596-2.363.39-.594 1.623-1.188 2.182-1.457l.086-.041.04-.02c1.423-.772 3.882-2.188 3.882-2.683 0-.495-1.91-1.658-3.044-1.98-1.13-.323-2.527-.873-3.422-1.793-.627-.582-.777-1.566-.904-2.402-.064-.42-.123-.803-.233-1.08-.034-.074-.077-.19-.13-.33C67.951 1.783 67.285 0 65.982 0c-1.466 0-1.627 1.12-1.806 2.354l-.02.14c-.236 1.427-.754 2.347-2.026 3.497-.942.874-2.214 1.794-2.873 2.024-.66.276-2.026.506-3.062.506-.546.015-1.138-.1-1.716-.212-1.269-.246-2.472-.48-2.979.691Zm20.44 1.209c-4.057 0-5.743 5.236-5.958 6.775-.292-2.034-2.156-6.28-6.725-6.28 5.076-.495 6.725-3.089 6.725-5.754l.027.13c.495 2.425.948 4.642 5.931 5.129Z" clip-rule="evenodd"/>
      <path fill="currentcolor" fill-rule="evenodd" d="M65.457 27.647c-1.58-.22-2.788-2.064-2.375-2.523.08-.09.143-.18.203-.268.251-.364.474-.687 1.813-.722.989 0 2.293-.22 2.922-.483.63-.22 1.844-1.098 2.743-1.932 1.214-1.098 1.709-1.976 1.933-3.338l.02-.134c.17-1.178.325-2.247 1.724-2.247 1.244 0 1.88 1.702 2.18 2.505.05.134.09.244.123.316.105.263.161.629.222 1.03.122.798.265 1.736.864 2.292.854.878 2.187 1.404 3.266 1.712 1.082.308 2.905 1.417 2.905 1.89 0 .472-2.347 1.824-3.705 2.561l-.12.058c-.534.257-1.71.824-2.083 1.39-.266.39-.406 1.253-.568 2.257-.113.697-.237 1.46-.421 2.18-.242.896-1.422 3.219-2.663 2.746-1-.38-1.547-1.639-2.006-2.693a18.454 18.454 0 0 0-.322-.712c-.45-1.01-1.754-2.723-2.923-3.733-1.349-1.23-2.653-1.976-3.732-2.152Zm8.983 4.565c.205-1.47 1.814-6.467 5.687-6.467-4.756-.465-5.189-2.582-5.662-4.896l-.025-.124c0 2.544-1.574 5.02-6.42 5.492 4.362 0 6.14 4.053 6.42 5.995ZM27.324 16.17c2.044.14 6.04-.046 9.2-.417 3.067-.372 8.83-.697 12.872-.743 6.738-.047 7.389.046 8.272.882.51.557.929 1.533.929 2.461 0 .79.418 3.901.93 6.827.51 2.926.929 5.945.929 6.734 0 .79-.372 1.765-.837 2.183-.418.464-1.533 1.021-2.416 1.3-.93.279-4.368.883-7.667 1.393-3.346.511-7.947 1.347-10.224 1.858-2.323.557-5.854 1.3-7.9 1.625-2.044.372-4.042.604-4.414.465-.418-.093-.976-.79-1.3-1.486-.326-.697-.79-2.787-1.07-4.552-.278-1.764-.697-6.455-.929-10.31-.232-3.9-.325-7.43-.186-7.801.186-.558.883-.65 3.81-.418Zm9.34 3.065c-2.463.279-4.6.697-4.74.883-.14.185.326.743 1.023 1.254.697.464 2.741 1.532 4.507 2.322 1.812.835 3.625 1.671 4.09 1.904.418.232 1.208.418 1.719.418.51 0 1.533-.558 2.23-1.254.744-.697 2.23-2.369 3.392-3.716l2.092-2.46c-7.575.138-11.804.37-14.313.65Zm6.506 10.542c1.254 0 2.23-.743 6.459-4.876 3.067-3.019 5.158-4.69 5.437-4.458.278.232.697 1.81.93 3.576.185 1.764.603 4.086.928 5.155.341 1.33.357 2.136.047 2.415-.232.232-3.485.882-7.203 1.44-3.67.51-6.83 1.02-6.97 1.114-.093.093-1.766.51-3.718.928-1.905.419-5.018 1.022-6.877 1.3-2.927.512-3.439.465-3.81-.139-.186-.371-.65-3.483-.93-6.966-.325-3.436-.464-6.548-.372-6.873.093-.418.837-.186 2.463.929 1.302.882 3.067 1.997 3.95 2.508.93.51 2.881 1.44 4.415 2.043 1.533.604 3.02 1.254 3.253 1.486.278.232 1.161.418 1.998.418Z" clip-rule="evenodd"/>
      <path fill="currentcolor" d="M5.158 18.4c-4.74.51-4.926.557-5.065 1.672-.093.65.14 1.44.465 1.765.51.464 1.951.464 7.156.092a806.16 806.16 0 0 0 8.364-.696c1.023-.14 2.416-.65 3.114-1.161 1.068-.79 1.161-1.068.697-1.626-.465-.603-1.534-.696-5.205-.65-2.556.047-6.877.325-9.526.604Zm3.02 7.477c.512-.372 1.534-.883 2.324-1.115.743-.232 2.834-.464 4.647-.51 2.556-.047 3.485.139 4.414.882 1.116.882 1.116.929.326 1.764-.744.697-1.627.836-6.134.836-3.625 0-5.53-.185-5.948-.557-.465-.51-.418-.743.371-1.3Zm-2.323 8.406c-1.812.417-3.857 1.021-4.554 1.393-.697.371-1.301.79-1.301 1.021 0 .186.883.465 1.998.604 1.069.186 5.809.186 10.502 0 6.692-.232 8.643-.418 9.154-.975.605-.604.558-.836-.278-1.626-.883-.789-1.72-.928-6.645-1.021-3.718-.047-6.738.14-8.876.604Z"/>
    </symbol>
    <symbol id="il-fixed-rate" viewBox="0 0 37 38">
      <title>Fixed monthly rate</title>
      <path fill="currentcolor" fill-rule="evenodd" d="M17.42 6.07c-.75.375-.657.75-.352 1.97.101.405.226.905.351 1.53v.058c-1.346.045-1.84.4-2.213.67-.086.063-.166.12-.25.169-1.115.65-2.276 1.811-2.927 2.972-.93 1.764-.976 1.997-.325 3.297.372.79 1.208 1.626 1.859 1.858.65.232 1.672.464 2.323.464h1.533v.012c0 .752.252 3.138.502 5.457a5.437 5.437 0 0 1-1.245-.36c-.418-.047-1.394-.79-2.184-1.672-1.069-1.254-1.627-1.58-2.463-1.393-.557.139-1.022.603-1.022.975 0 .371.372 1.44.79 2.368.557 1.068 1.487 1.95 2.695 2.555 1.022.464 2.184.882 2.556.882.32 0 .676.023 1.055.047l.182.011c.081.803.134 1.401.134 1.63 0 1 1.5 1.5 2 1s.5-1 .5-2.5v-.206c.59-.113 1.17-.32 1.705-.679 1.115-.371 1.952-1.114 2.649-2.368.604-.975 1.069-2.508 1.069-3.344 0-.79-.372-2.09-.837-2.88-.418-.742-1.348-1.671-2.091-2.089-.697-.372-1.673-.697-2.184-.697-.082 0-.244.02-.465.047-.03-.699-.063-1.42-.095-2.134.603.316 1.343.78 1.629 1.066.836.743.93.743 1.533-.14.372-.51.65-1.3.65-1.764 0-.418-.557-1.208-1.3-1.765-.697-.51-1.72-1.022-2.324-1.161a32.365 32.365 0 0 0-.36-.062 75.068 75.068 0 0 1-.08-2.324c0-1.5-1.999-2-2.999-1.5Zm-2.078 9.065c0-1.748 1.012-2.204 2.077-2.214v3.212c-1.135-.025-2.077-.259-2.077-.998Zm5.577 5.435c0-.34-.01-.8-.025-1.346.942.227 1.413.63 1.638.854.325.326.558 1.022.558 1.533 0 .51-.233 1.207-.558 1.486-.076.076-.14.15-.203.224-.21.242-.422.489-1.1.846a2.703 2.703 0 0 1-.31.137V20.57Z" clip-rule="evenodd"/>
      <path fill="currentcolor" fill-rule="evenodd" d="M14.39.418C13.089.79 10.998 1.58 9.743 2.23c-1.301.65-3.253 2.09-4.368 3.205-1.069 1.114-2.602 3.204-3.3 4.597-.695 1.393-1.532 3.9-1.811 5.572-.371 2.369-.371 3.762.14 6.27.325 1.765 1.301 4.505 2.09 6.037.837 1.533 2.278 3.576 3.207 4.551.93.976 2.556 2.276 3.578 2.88 1.023.65 2.881 1.44 4.183 1.857 1.254.372 3.578.697 5.111.697 1.534 0 3.81-.325 5.112-.743 1.254-.465 3.438-1.533 4.786-2.462 1.394-.928 3.253-2.693 4.182-3.993.93-1.254 2.23-3.67 2.974-5.341 1.023-2.508 1.255-3.715 1.255-7.059 0-3.112-.233-4.737-1.023-6.734-.557-1.486-1.812-3.669-2.788-4.876-.929-1.254-2.509-2.74-3.485-3.39-.976-.65-2.834-1.58-4.182-2.09C24.055.697 21.546.186 19.827.047c-1.813-.14-4.09.046-5.437.371Zm-3.253 5.015c.79-.418 2.23-.975 3.253-1.346 1.069-.326 3.3-.511 5.112-.465 2.09.093 4.089.511 5.576 1.161 1.301.604 3.253 1.904 4.368 2.972 1.069 1.115 2.416 2.74 2.881 3.716.511.975 1.115 2.832 1.394 4.18.419 1.857.419 3.064-.046 4.968-.279 1.44-1.208 3.809-1.998 5.341-.837 1.486-2.324 3.437-3.346 4.32-1.023.835-2.881 2.089-4.182 2.693-1.813.882-3.02 1.16-5.67 1.16-2.602 0-3.95-.278-5.808-1.16-1.348-.65-3.392-2.044-4.508-3.158-1.161-1.115-2.602-3.251-3.345-4.877-1.07-2.322-1.348-3.575-1.348-6.27 0-1.95.325-4.318.79-5.711.558-1.58 1.534-3.019 3.16-4.551 1.255-1.254 2.974-2.601 3.717-2.973Z" clip-rule="evenodd"/>
    </symbol>
    <symbol id="il-top-quality" viewBox="0 0 36 39">
      <title>Top quality content</title>
      <path fill="currentcolor" fill-rule="evenodd" d="M15.183 9.586c-.393.437.758 2.193 2.263 2.403 1.028.167 2.27.878 3.554 2.05 1.114.961 2.355 2.592 2.784 3.554.1.206.2.436.306.678.437 1.005.96 2.203 1.911 2.566 1.181.45 2.306-1.762 2.536-2.616.175-.686.293-1.413.4-2.076.156-.956.289-1.778.542-2.149.355-.54 1.476-1.08 1.984-1.324.043-.02.081-.04.114-.056 1.293-.701 3.529-1.989 3.529-2.439 0-.45-1.736-1.507-2.767-1.8-1.027-.293-2.297-.793-3.11-1.63-.571-.53-.707-1.423-.823-2.184-.058-.381-.111-.729-.211-.98-.032-.069-.07-.173-.119-.301-.285-.765-.89-2.386-2.075-2.386-1.333 0-1.48 1.019-1.642 2.14l-.019.128c-.214 1.297-.685 2.133-1.841 3.179-.857.795-2.013 1.631-2.612 1.84-.6.251-1.842.46-2.784.46-1.275.034-1.487.341-1.725.688-.058.084-.118.17-.195.255Zm16.234.591c-3.688 0-5.22 4.76-5.416 6.16-.266-1.85-1.96-5.71-6.114-5.71C24.5 10.177 26 7.82 26 5.397l.024.117c.45 2.205.862 4.22 5.392 4.663ZM10.002 11.35c.234-1.631 2.184-2.88 2.67-2.454.095.084.19.148.284.211.385.26.726.489.764 1.872 0 1.021.232 2.368.511 3.018.232.65 1.162 1.904 2.045 2.833 1.161 1.254 2.09 1.765 3.531 1.997l.143.02c1.246.176 2.377.336 2.377 1.78 0 1.286-1.8 1.942-2.65 2.252a6.133 6.133 0 0 0-.334.128c-.28.108-.666.166-1.09.229-.845.126-1.838.273-2.426.892-.782.742-1.345 2.828-1.698 4.135-.066.246-.125.465-.177.642-.325 1.114-.93 2.554-1.254 3.204-.326.65-.837 1.207-1.116 1.3-.278.047-.79-.51-1.161-1.3-.419-.79-.697-2.136-.697-3.019 0-.882-.186-1.997-.419-2.415l-.061-.124c-.272-.55-.872-1.766-1.472-2.152-.411-.274-1.325-.418-2.387-.586-.737-.117-2.53-.616-3.291-.806-.95-.25-2.497-2.33-1.997-3.61.403-1.033 1.81-.367 2.925-.841.27-.115.526-.224.754-.333 1.068-.464 2.88-1.81 3.95-3.018 1.3-1.393 2.09-2.74 2.276-3.855Zm-4.83 9.278c5.434-.232 6.155 3.51 6.968 5.281.187-2.271 2.687-4.781 5.187-5.281-2.692 0-4.734-3.628-5.187-5.719-.047 1.59-3.327 5.564-6.968 5.719ZM17.86 32.216c-1.127-.157-1.99-1.474-1.696-1.802.057-.064.102-.129.146-.192.179-.26.338-.49 1.294-.515.707 0 1.638-.157 2.088-.346.45-.156 1.316-.784 1.959-1.38.867-.784 1.22-1.411 1.38-2.384l.015-.096c.121-.84.232-1.605 1.231-1.605.889 0 1.343 1.216 1.557 1.79.036.096.065.174.088.225.075.189.115.45.159.736.087.57.189 1.24.617 1.637.61.628 1.562 1.003 2.333 1.223.773.22 2.075 1.012 2.075 1.35 0 .337-1.677 1.303-2.646 1.83l-.087.041c-.38.184-1.221.588-1.488.993-.19.278-.29.895-.405 1.612-.08.497-.17 1.043-.3 1.557-.173.64-1.017 2.3-1.903 1.962-.714-.272-1.105-1.171-1.433-1.924-.08-.182-.155-.355-.23-.509-.321-.721-1.252-1.945-2.087-2.666-.964-.878-1.895-1.412-2.666-1.537Zm6.417 3.26c.146-1.05 1.296-4.62 4.062-4.62-3.397-.33-3.706-1.843-4.044-3.496l-.018-.088c0 1.817-1.125 3.585-4.585 3.922 3.115 0 4.386 2.895 4.585 4.283Z" clip-rule="evenodd"/>
    </symbol>
    <symbol id="il-flexible-scalable" viewBox="0 0 43 34">
      <title>Flexible and scalable plans</title>
      <path fill="currentcolor" d="M26.26 6.237c.14-.279 2.835-1.579 5.902-2.926 3.067-1.3 5.994-2.368 6.505-2.415.512 0 1.162.233 1.441.558.325.325.65 1.114.79 1.765.07.491.353 1.86.668 3.381a1070.396 1070.396 0 0 1 .308 1.495c.418 2.043.883 3.854.976 4.086.139.186-.093.93-.465 1.719-.418.79-.93 1.393-1.162 1.393-.279 0-.65-.371-.883-.79-.232-.464-.65-1.95-.93-3.25-.278-1.347-.742-2.555-.975-2.694-.279-.14-1.487 1.3-2.742 3.158a1133.76 1133.76 0 0 1-5.855 8.684c-1.998 2.926-4.042 5.805-5.344 7.431l-3.856-2.508c-2.091-1.393-4.415-3.019-6.506-4.69l-.883 1.16c-.511.65-1.905 2.323-3.113 3.716-1.209 1.393-2.556 3.158-2.928 3.947-.708 1.505-1.2 3.216-2.69 4.11-.28.139-1.385.417-2.5 0C.856 33.101.563 32.29.238 31.778c-.418-.79-.325-1.16.604-2.368.604-.79 2.23-2.787 3.578-4.412.841-1.014 2.189-2.59 3.524-4.15.804-.94 1.603-1.874 2.285-2.677 2.184-2.554 3.624-3.854 4.275-3.808.51 0 2.695 1.811 8.829 7.941l1.394-1.764c.79-.975 3.067-4.226 5.018-7.199 1.952-3.018 3.44-5.712 3.346-5.944-.186-.278-.93-.14-1.998.418-.976.465-2.23.975-2.788 1.161-.837.232-1.208 0-1.72-.975-.371-.743-.51-1.533-.325-1.765Z"/>
    </symbol>
    <symbol id="il-tailored" viewBox="0 0 35 36">
      <title>Tailored content</title>
      <path fill="currentcolor" fill-rule="evenodd" d="M26.953 1.545c-1.022.417-2.51 1.207-3.206 1.718-.744.51-2.928 2.926-4.88 5.34a193.506 193.506 0 0 1-5.39 6.502c-1.069 1.161-2.323 2.74-2.835 3.576-.65 1.068-1.347 1.533-2.509 1.718-1.115.14-2.137.743-3.16 1.858-.93 1.068-1.487 2.136-1.487 2.972 0 .697-.325 1.719-.697 2.322-.418.558-1.022 1.022-1.394 1.022-.418 0-.93.418-1.162.929-.325.65-.325 1.3.093 2.229.326.697 1.302 1.625 2.23 2.043.884.465 2.65.975 3.95 1.115 1.906.278 2.65.14 4.322-.79 1.07-.603 2.51-1.904 3.114-2.832.604-.976 1.347-2.74 1.58-3.948.278-1.254.51-2.23.604-2.275.046 0 2.184-1.58 4.74-3.484 2.509-1.904 6.133-5.015 8.039-6.92 2.462-2.507 3.67-4.132 4.321-5.897.511-1.347.93-3.251.93-4.18 0-1.114-.326-2.09-.837-2.6-.418-.418-1.626-.883-2.649-1.022-1.208-.14-2.555.046-3.717.604Zm-3.95 7.522c1.44-1.625 3.3-3.343 4.229-3.808.883-.464 1.998-.836 2.416-.882.465 0 .93.371 1.116.79.14.464.046 1.346-.28 1.996-.324.65-1.254 1.997-2.044 2.973-.79 1.021-3.113 3.25-8.875 8.173-.615-1.411-1.098-1.836-2.324-2.23l1.58-2.043c.883-1.114 2.788-3.343 4.182-4.969Zm-9.015 12.075c-.278-.279-.325-.79-.092-1.208.185-.418.78-1.585 1.337-1.493.558.093 1.907 1.175 2 1.5.047.28-1.154.922-1.758 1.2-.697.326-1.161.372-1.487 0ZM6.693 25.74c-.047-.558.418-1.162 1.301-1.58.743-.418 1.766-.65 2.277-.603.65.046.883.371.79 1.021-.093.511.186 1.394.558 1.998.65.928.65 1.16.046 2.182-.372.65-1.348 1.486-3.485 2.554v-2.09c0-1.44-.232-2.136-.697-2.322-.372-.139-.744-.65-.79-1.16Z" clip-rule="evenodd"/>
    </symbol>
    <symbol id="most-popular" viewBox="0 0 108 26">
        <title>Most popular membership</title>
        <path fill="currentcolor" d="M25.91 16.991c.448 0 .837-.101 1.168-.304.341-.213.608-.528.8-.944.192-.426.288-.965.288-1.616 0-.65-.096-1.184-.288-1.6-.192-.426-.459-.741-.8-.944-.33-.213-.72-.32-1.168-.32-.438 0-.827.107-1.168.32-.33.203-.592.518-.784.944-.181.416-.272.95-.272 1.6 0 .651.09 1.19.272 1.616.192.416.453.731.784.944.341.203.73.304 1.168.304Zm23.444-2.32c0 .427.064.816.192 1.168.138.342.357.619.656.832.298.214.693.32 1.184.32.618 0 1.146-.229 1.584-.688.437-.469.656-1.2.656-2.192 0-.992-.219-1.717-.656-2.176a2.109 2.109 0 0 0-1.584-.688c-.491 0-.886.107-1.184.32-.299.203-.518.48-.656.832a3.396 3.396 0 0 0-.192 1.168v1.104Zm10.587 2.32c.448 0 .837-.101 1.168-.304.341-.213.608-.528.8-.944.192-.426.288-.965.288-1.616 0-.65-.096-1.184-.288-1.6-.192-.426-.459-.741-.8-.944-.33-.213-.72-.32-1.168-.32a2.16 2.16 0 0 0-1.168.32c-.33.203-.592.518-.784.944-.181.416-.272.95-.272 1.6 0 .651.09 1.19.272 1.616.192.416.453.731.784.944.341.203.73.304 1.168.304Zm6.819-2.32c0 .427.064.816.192 1.168.139.342.357.619.656.832.299.214.693.32 1.184.32.619 0 1.147-.229 1.584-.688.437-.469.656-1.2.656-2.192 0-.992-.219-1.717-.656-2.176a2.109 2.109 0 0 0-1.584-.688c-.49 0-.885.107-1.184.32-.299.203-.517.48-.656.832a3.394 3.394 0 0 0-.192 1.168v1.104Zm23.678-.725v1.077c0 .288-.06.55-.176.784a1.872 1.872 0 0 1-.464.624 2.12 2.12 0 0 1-.704.432 2.632 2.632 0 0 1-.896.144c-.363 0-.635-.074-.816-.224-.182-.149-.272-.357-.272-.624a.83.83 0 0 1 .256-.608c.17-.181.437-.362.8-.544l2.272-1.06Z"/>
        <path fill="currentcolor" fill-rule="evenodd" d="M21.933 1.235c-7.95.445-15.353.97-16.45 1.172-1.233.202-2.878 1.252-3.838 2.303C.823 5.8 0 9.436 0 13.113c0 5.413.411 6.706 2.468 8.08 1.37.888 3.7 1.898 5.209 2.262 1.37.363 5.62.848 9.458 1.09 3.702.243 13.023.647 20.563.93 7.54.283 21.66.525 31.53.525 12.337 0 20.287-.202 26.045-.687 7.452-.593 8.737-1.844 11.227-8.322.946-2.46 1.634-4.982 1.364-10.948C107.615.542 102.231.375 97.168.262c-1.2-.027-2.27-.051-3.083-.143-3.9-.44-59.951.43-72.152 1.116ZM11.14 18H9.763V7.28h1.552l2.768 5.312 1.088 2.352 1.072-2.352 2.784-5.312h1.552V18h-1.392v-5.92l.144-2.896-1.184 2.656-2.304 4.368h-1.36l-2.304-4.368-1.2-2.656.16 2.896V18Zm14.77.16c-.714 0-1.348-.165-1.903-.496-.544-.33-.97-.8-1.28-1.408-.31-.608-.464-1.317-.464-2.128 0-.821.154-1.53.464-2.128a3.418 3.418 0 0 1 1.28-1.408c.555-.33 1.19-.496 1.904-.496.715 0 1.344.166 1.888.496.555.331.987.8 1.296 1.408.32.598.48 1.307.48 2.128 0 .811-.16 1.52-.48 2.128a3.382 3.382 0 0 1-1.296 1.408c-.544.331-1.173.496-1.888.496Zm6.76-.24c.49.16 1.002.24 1.535.24.512 0 .976-.08 1.392-.24.427-.16.768-.4 1.024-.72.267-.33.4-.752.4-1.264 0-.533-.17-.981-.512-1.344-.33-.373-.933-.661-1.808-.864l-.992-.256c-.522-.128-.917-.272-1.184-.432-.256-.16-.384-.41-.384-.752 0-.33.128-.581.384-.752.256-.17.587-.256.992-.256.555 0 1.014.134 1.376.4.374.267.656.63.848 1.088l1.056-.784c-.213-.512-.597-.954-1.152-1.328-.544-.373-1.226-.56-2.048-.56-.842 0-1.514.203-2.016.608-.5.406-.752.96-.752 1.664 0 .47.118.854.352 1.152.235.288.528.518.88.688.352.16.71.283 1.072.368l1.024.24a5.64 5.64 0 0 1 1.136.384c.32.15.48.4.48.752a.88.88 0 0 1-.416.784c-.277.171-.645.256-1.104.256-.512 0-.949-.085-1.312-.256a2.54 2.54 0 0 1-.88-.656 2.9 2.9 0 0 1-.464-.848l-1.008.784c.182.48.448.88.8 1.2.363.31.79.544 1.28.704Zm8.385.256c-.427 0-.8-.085-1.12-.256a1.959 1.959 0 0 1-.752-.752c-.181-.32-.272-.704-.272-1.152v-4.672h-1.264v-1.088h1.264v-.992l1.376-1.024v2.016h2.544v1.088h-2.544V15.6c0 .491.101.822.304.992.203.16.459.24.768.24.341 0 .63-.112.864-.336a2.37 2.37 0 0 0 .512-.72l.464 1.376c-.17.267-.437.507-.8.72-.363.203-.81.304-1.344.304Zm9.372-.432c.362.278.842.416 1.44.416.65 0 1.21-.165 1.68-.496.469-.341.832-.816 1.088-1.424.266-.608.4-1.317.4-2.128 0-.821-.134-1.53-.4-2.128-.256-.608-.619-1.077-1.088-1.408-.47-.33-1.03-.496-1.68-.496-.598 0-1.078.134-1.44.4a2.441 2.441 0 0 0-.816 1.056c-.108.26-.194.53-.256.805v-2.085h-1.376v10.72h1.376v-5.079c.062.273.148.537.256.791.181.427.453.779.816 1.056Zm9.515.416c-.715 0-1.35-.165-1.904-.496-.544-.33-.97-.8-1.28-1.408-.31-.608-.464-1.317-.464-2.128 0-.821.155-1.53.464-2.128a3.417 3.417 0 0 1 1.28-1.408c.555-.33 1.19-.496 1.904-.496.715 0 1.344.166 1.888.496.555.331.987.8 1.296 1.408.32.598.48 1.307.48 2.128 0 .811-.16 1.52-.48 2.128a3.384 3.384 0 0 1-1.296 1.408c-.544.331-1.173.496-1.888.496Zm7.89-.416c.364.278.844.416 1.44.416.652 0 1.212-.165 1.681-.496.47-.341.832-.816 1.088-1.424.267-.608.4-1.317.4-2.128 0-.821-.133-1.53-.4-2.128-.256-.608-.619-1.077-1.088-1.408-.47-.33-1.03-.496-1.68-.496-.597 0-1.077.134-1.44.4a2.443 2.443 0 0 0-.816 1.056c-.108.26-.193.53-.256.805v-2.085h-1.376v10.72h1.376v-5.079c.063.273.148.537.256.791.181.427.453.779.816 1.056Zm8.672.416c-.501 0-.939-.096-1.312-.288a2.083 2.083 0 0 1-.864-.88c-.192-.384-.288-.842-.288-1.376v-5.36h1.376v5.024c0 .502.123.912.368 1.232.245.32.693.48 1.344.48.501 0 .901-.106 1.2-.32a1.75 1.75 0 0 0 .64-.848c.139-.352.208-.741.208-1.168v-4.4h1.376V18h-1.376v-2.147a4.2 4.2 0 0 1-.304.835 2.677 2.677 0 0 1-.896 1.056c-.384.278-.875.416-1.472.416Zm6.162-.16h1.376V7.28h-1.376V18Zm10.045 0h-.896c-.267 0-.507-.048-.72-.144a1.06 1.06 0 0 1-.48-.464c-.118-.213-.176-.501-.176-.864v-.547a3.598 3.598 0 0 1-.368.883 2.853 2.853 0 0 1-.896.928c-.384.246-.86.368-1.424.368-.651 0-1.158-.165-1.52-.496-.352-.341-.528-.768-.528-1.28 0-.522.176-.954.528-1.296.352-.352.805-.65 1.36-.896l2.796-1.25c-.023-.427-.144-.789-.364-1.086-.235-.33-.678-.496-1.328-.496-.555 0-1.02.144-1.392.432a2.84 2.84 0 0 0-.848 1.056l-.944-.976c.16-.266.389-.533.688-.8a3.859 3.859 0 0 1 1.136-.688 3.824 3.824 0 0 1 1.52-.288c.949 0 1.674.267 2.176.8.5.523.752 1.248.752 2.176v3.184c0 .182.037.31.112.384a.478.478 0 0 0 .32.096h.496V18Zm1.611 0h1.376v-4.384c0-.448.091-.858.272-1.232a2.66 2.66 0 0 1 .704-.912c.288-.234.598-.352.928-.352.288 0 .491.086.608.256.128.16.192.352.192.576 0 .214-.048.427-.144.64a1.33 1.33 0 0 1-.32.496h1.52c.064-.096.128-.256.192-.48.075-.234.112-.517.112-.848 0-.554-.17-.97-.512-1.248a1.697 1.697 0 0 0-1.12-.416c-.384 0-.725.08-1.024.24a2.38 2.38 0 0 0-.768.656 3.597 3.597 0 0 0-.496.912 5.034 5.034 0 0 0-.144.503v-2.15h-1.376V18Z" clip-rule="evenodd"/>
    </symbol>
    <symbol id="icon-photo" viewBox="0 0 24 24">
      <path stroke-linecap="round" stroke-linejoin="round" d="M2.25 15.75l5.159-5.159a2.25 2.25 0 013.182 0l5.159 5.159m-1.5-1.5l1.409-1.409a2.25 2.25 0 013.182 0l2.909 2.909m-18 3.75h16.5a1.5 1.5 0 001.5-1.5V6a1.5 1.5 0 00-1.5-1.5H3.75A1.5 1.5 0 002.25 6v12a1.5 1.5 0 001.5 1.5zm10.5-11.25h.008v.008h-.008V8.25zm.375 0a.375.375 0 11-.75 0 .375.375 0 01.75 0z" stroke="currentcolor" fill="none" stroke-width="1.5"  />
    </symbol>
    <symbol id="icon-envelope" viewBox="0 0 24 24">
      <path stroke-linecap="round" stroke-linejoin="round" d="M21.75 6.75v10.5a2.25 2.25 0 01-2.25 2.25h-15a2.25 2.25 0 01-2.25-2.25V6.75m19.5 0A2.25 2.25 0 0019.5 4.5h-15a2.25 2.25 0 00-2.25 2.25m19.5 0v.243a2.25 2.25 0 01-1.07 1.916l-7.5 4.615a2.25 2.25 0 01-2.36 0L3.32 8.91a2.25 2.25 0 01-1.07-1.916V6.75" stroke="currentcolor" fill="none" stroke-width="1.5"  />
    </symbol>
    <symbol id="icon-paint-brush" viewBox="0 0 24 24">
      <path stroke-linecap="round" stroke-linejoin="round" d="M9.53 16.122a3 3 0 00-5.78 1.128 2.25 2.25 0 01-2.4 2.245 4.5 4.5 0 008.4-2.245c0-.399-.078-.78-.22-1.128zm0 0a15.998 15.998 0 003.388-1.62m-5.043-.025a15.994 15.994 0 011.622-3.395m3.42 3.42a15.995 15.995 0 004.764-4.648l3.876-5.814a1.151 1.151 0 00-1.597-1.597L14.146 6.32a15.996 15.996 0 00-4.649 4.763m3.42 3.42a6.776 6.776 0 00-3.42-3.42" stroke="currentcolor" fill="none" stroke-width="1.5"  />
    </symbol>
    <symbol id="icon-fire" viewBox="0 0 24 24">
      <path stroke-linecap="round" stroke-linejoin="round" d="M15.362 5.214A8.252 8.252 0 0112 21 8.25 8.25 0 016.038 7.048 8.287 8.287 0 009 9.6a8.983 8.983 0 013.361-6.867 8.21 8.21 0 003 2.48z" stroke="currentcolor" fill="none" stroke-width="1.5"  />
      <path stroke-linecap="round" stroke-linejoin="round" d="M12 18a3.75 3.75 0 00.495-7.467 5.99 5.99 0 00-1.925 3.546 5.974 5.974 0 01-2.133-1A3.75 3.75 0 0012 18z" stroke="currentcolor" fill="none" stroke-width="1.5"  />
    </symbol>
    <symbol id="icon-arrow-trending-up" viewBox="0 0 24 24">
      <path stroke-linecap="round" stroke-linejoin="round" d="M2.25 18L9 11.25l4.306 4.307a11.95 11.95 0 015.814-5.519l2.74-1.22m0 0l-5.94-2.28m5.94 2.28l-2.28 5.941" stroke="currentcolor" fill="none" stroke-width="1.5"  />
    </symbol>
    <symbol id="icon-view-columns" viewBox="0 0 24 24">
      <path stroke-linecap="round" stroke-linejoin="round" d="M9 4.5v15m6-15v15m-10.875 0h15.75c.621 0 1.125-.504 1.125-1.125V5.625c0-.621-.504-1.125-1.125-1.125H4.125C3.504 4.5 3 5.004 3 5.625v12.75c0 .621.504 1.125 1.125 1.125z" stroke="currentcolor" fill="none" stroke-width="1.5"  />
    </symbol>
    <symbol id="icon-sparkles" viewBox="0 0 24 24">
      <path stroke-linecap="round" stroke-linejoin="round" d="M9.813 15.904L9 18.75l-.813-2.846a4.5 4.5 0 00-3.09-3.09L2.25 12l2.846-.813a4.5 4.5 0 003.09-3.09L9 5.25l.813 2.846a4.5 4.5 0 003.09 3.09L15.75 12l-2.846.813a4.5 4.5 0 00-3.09 3.09zM18.259 8.715L18 9.75l-.259-1.035a3.375 3.375 0 00-2.455-2.456L14.25 6l1.036-.259a3.375 3.375 0 002.455-2.456L18 2.25l.259 1.035a3.375 3.375 0 002.456 2.456L21.75 6l-1.035.259a3.375 3.375 0 00-2.456 2.456zM16.894 20.567L16.5 21.75l-.394-1.183a2.25 2.25 0 00-1.423-1.423L13.5 18.75l1.183-.394a2.25 2.25 0 001.423-1.423l.394-1.183.394 1.183a2.25 2.25 0 001.423 1.423l1.183.394-1.183.394a2.25 2.25 0 00-1.423 1.423z" stroke="currentcolor" fill="none" stroke-width="1.5"  />
    </symbol>
    <symbol id="recraftr-logo-dark" viewBox="0 0 590 112">
      <path fill="currentcolor" d="M52.036 81.796c-1.853-5.424-1.765-9.628-1.478-12.335l3.266-.296c.499.595 1.144 1.504 1.781 2.64.97 1.729 1.603 3.427 1.704 4.538a2.754 2.754 0 002.993 2.492 2.753 2.753 0 002.494-2.99c-.205-2.252-1.275-4.752-2.383-6.728a31.23 31.23 0 00-.245-.429l2.278-.163c.256.216.5.413.721.59l.093.075.1.082c.544.438.984.811 1.416 1.28.823.892 1.823 2.36 2.91 5.543 1.112 3.252 1.678 6.612 1.18 9.267-.24 1.284-.714 2.33-1.433 3.153-.71.811-1.783 1.548-3.461 2.026-3.557 1.014-5.743.387-7.346-.898-1.803-1.445-3.296-4.059-4.59-7.847z"/>
      <path fill="currentcolor" fill-rule="evenodd" d="M7.062 77.712a51.574 51.574 0 01-6.998-23.56C-1.343 25.736 20.471 1.448 48.964.061c22.02-1.072 41.422 11.855 49.751 30.899a51.563 51.563 0 016.998 23.559c.888 17.922-7.453 34.175-20.858 44.096-3.57 8.42-11.45 12.181-18.505 13.144-5.594.764-10.729-.297-15.16-3.181-19.659-1.174-36.516-13.465-44.128-30.867zm7.484-23.818c.838 16.896 12.676 30.64 28.21 34.58 1.488 3.495 3.63 7.096 6.93 9.742l-1.46-.189C25.407 96.21 7.075 77.645 5.92 54.314 4.664 28.99 24.112 7.276 49.604 6.035c25.492-1.24 46.993 18.482 48.248 43.805.775 15.643-6.338 29.874-17.867 38.777 0 0-.385-.477-.243-1.238.639-3.41.377-6.865-.25-9.957a37.465 37.465 0 009.732-27.162C88.198 29.554 70.65 13.582 50.028 14.585 29.406 15.59 13.52 33.188 14.546 53.894zM75.31 43.587c-1.07-4.897-5.59-8.07-10.093-7.087-4.503.982-7.286 5.748-6.215 10.645 1.07 4.896 5.59 8.07 10.093 7.087 4.503-.983 7.286-5.749 6.215-10.645zM39.18 53.982c-2.038.268-4.049.98-6.775 2.344a3.063 3.063 0 01-4.108-1.365 3.056 3.056 0 011.367-4.103c3.027-1.514 5.729-2.545 8.714-2.939 2.98-.393 6.02-.12 9.695.643a3.058 3.058 0 11-1.246 5.987c-3.314-.688-5.606-.837-7.648-.567zm-5.805 8.707a2.145 2.145 0 00-2.583 2.278c.37 4.255 3.663 8.51 8.053 11.481a26.701 26.701 0 006.894 3.324 37.43 37.43 0 001.082 3.802c1.39 4.07 3.304 7.916 6.357 10.362 3.254 2.607 7.375 3.302 12.305 1.898 2.566-.731 4.604-1.988 6.1-3.7 1.489-1.702 2.316-3.71 2.7-5.76.751-4.012-.144-8.433-1.382-12.056a34.747 34.747 0 00-.795-2.115c1.526-1.759 2.732-3.606 3.554-5.35.895-1.898 1.464-3.953 1.192-5.713a2.14 2.14 0 00-2.854-1.684c-11.934 4.364-29.522 5.602-40.623 3.233z" clip-rule="evenodd"/>
      <path fill="currentcolor" d="M489.976 50.442h20.562v24.417c0 7.553 1.896 13.016 5.688 16.389 3.792 3.3 9.079 4.949 15.86 4.949h9.517V80.249h-6.673c-2.041 0-3.5-.404-4.375-1.21-.875-.807-1.313-2.127-1.313-3.96V50.442h12.251V34.823h-12.251V19.865h-18.704v14.958h-20.562v-.55c0-3.226.729-5.462 2.188-6.709 1.458-1.247 3.974-1.76 7.547-1.54V10.076c-.656-.074-1.677-.11-3.063-.11-8.313 0-14.62 1.98-18.922 5.94-4.303 3.885-6.454 9.605-6.454 17.157v1.76h-6.781v15.619h6.781v45.755h18.704V50.442zM266.25 57.481c0-7.626 1.641-14.409 4.922-20.348 3.282-6.013 7.839-10.669 13.673-13.969 5.906-3.373 12.578-5.059 20.016-5.059 9.115 0 16.918 2.42 23.408 7.26 6.49 4.839 10.829 11.438 13.016 19.797h-20.563c-1.532-3.226-3.719-5.682-6.563-7.369-2.771-1.687-5.943-2.53-9.516-2.53-5.761 0-10.428 2.017-14.001 6.05-3.573 4.032-5.36 9.422-5.36 16.168 0 6.746 1.787 12.135 5.36 16.168 3.573 4.033 8.24 6.05 14.001 6.05 3.573 0 6.745-.843 9.516-2.53 2.844-1.686 5.031-4.143 6.563-7.37h20.563c-2.187 8.36-6.526 14.96-13.016 19.799-6.49 4.766-14.293 7.149-23.408 7.149-7.438 0-14.11-1.65-20.016-4.95-5.834-3.373-10.391-8.029-13.673-13.968-3.281-5.94-4.922-12.722-4.922-20.348z"/>
      <path fill="currentcolor" fill-rule="evenodd" d="M153.855 67.05l15.97 29.147h21.11L173.216 65.62c5.615-1.686 9.844-4.546 12.688-8.579 2.917-4.033 4.375-8.616 4.375-13.749 0-4.546-1.057-8.652-3.172-12.318-2.115-3.74-5.323-6.673-9.625-8.8-4.23-2.126-9.371-3.19-15.423-3.19h-31.392v77.213h18.704V67.05h4.484zm7.11-13.309h-11.594V34.603h11.594c3.427 0 5.98.844 7.657 2.53 1.75 1.686 2.625 3.996 2.625 6.93 0 3.079-.875 5.462-2.625 7.149-1.677 1.686-4.23 2.53-7.657 2.53zm98.262 16.279c.218-1.907.328-3.74.328-5.5 0-6.16-1.313-11.549-3.938-16.168-2.552-4.62-6.125-8.176-10.719-10.669-4.594-2.493-9.845-3.74-15.751-3.74-6.052 0-11.412 1.284-16.079 3.85s-8.313 6.233-10.938 10.999c-2.552 4.766-3.828 10.339-3.828 16.718 0 6.38 1.312 11.952 3.937 16.718 2.625 4.767 6.271 8.433 10.938 11 4.667 2.566 9.99 3.849 15.97 3.849 4.958 0 9.443-.917 13.454-2.75 4.01-1.833 7.328-4.363 9.953-7.589 2.698-3.226 4.558-6.856 5.579-10.889h-19.908c-1.823 3.96-5.067 5.94-9.734 5.94-3.136 0-5.798-.99-7.985-2.97-2.115-2.053-3.318-4.986-3.61-8.8h42.331zm-22.095-18.148c2.187 1.906 3.281 4.472 3.281 7.699h-23.407c.51-3.373 1.823-5.976 3.937-7.81 2.188-1.833 4.85-2.75 7.985-2.75 3.282 0 6.016.954 8.204 2.86z" clip-rule="evenodd"/>
      <path fill="currentcolor" d="M376.54 37.133c-3.282 1.906-6.016 4.546-8.204 7.92v-10.23h-18.704v61.374h18.704V67.71c0-5.06 1.167-8.58 3.5-10.559 2.334-2.053 5.834-3.08 10.501-3.08h5.141V34.163c-4.011 0-7.657.99-10.938 2.97z"/>
      <path fill="currentcolor" fill-rule="evenodd" d="M391.456 65.4c0-6.306 1.167-11.842 3.5-16.608 2.406-4.766 5.651-8.433 9.735-10.999 4.084-2.566 8.641-3.85 13.673-3.85 4.302 0 8.057.88 11.266 2.64 3.281 1.76 5.797 4.07 7.547 6.93v-8.69h18.704v61.374h-18.704v-8.69c-1.823 2.86-4.375 5.17-7.657 6.93-3.208 1.76-6.964 2.64-11.266 2.64-4.958 0-9.479-1.283-13.563-3.85-4.084-2.64-7.329-6.342-9.735-11.109-2.333-4.839-3.5-10.412-3.5-16.718zm45.721.11c0-4.693-1.313-8.396-3.938-11.109-2.552-2.713-5.688-4.07-9.406-4.07-3.719 0-6.891 1.357-9.517 4.07-2.552 2.64-3.828 6.306-3.828 11 0 4.692 1.276 8.432 3.828 11.218 2.626 2.713 5.798 4.07 9.517 4.07 3.718 0 6.854-1.357 9.406-4.07 2.625-2.713 3.938-6.416 3.938-11.109z" clip-rule="evenodd"/>
      <path fill="currentcolor" d="M578.929 37.133c-3.282 1.906-6.016 4.546-8.204 7.92v-10.23h-18.704v61.374h18.704V67.71c0-5.06 1.167-8.58 3.5-10.559 2.334-2.053 5.834-3.08 10.501-3.08h5.141V34.163c-4.011 0-7.657.99-10.938 2.97z"/>
    </symbol>
    <symbol id="recraftr-emblem-default" viewBox="0 0 107 112">
      <path fill="currentcolor" d="M19.063 53.877c-1.592-18.337 12-34.492 30.358-36.083 18.36-1.59 34.533 11.985 36.126 30.323a33.16 33.16 0 0 1-5.64 21.606 27.51 27.51 0 0 1-2.042 3.24c.734 2.15 1.41 4.701 1.712 7.402 8.747-8.115 13.79-20.03 12.68-32.83-1.915-22.038-21.354-38.354-43.418-36.442-22.064 1.912-38.4 21.327-36.485 43.366 1.624 18.7 15.866 33.28 33.623 36.1-.987-1.857-1.754-3.782-2.38-5.612a42.723 42.723 0 0 1-.608-1.926l-.107-.044c-12.79-3.763-22.597-15.03-23.819-29.1Z"/>
      <path fill="currentcolor" d="M66.084 36.5c4.504-.982 9.022 2.19 10.093 7.087 1.07 4.896-1.712 9.662-6.216 10.645-4.503.982-9.022-2.19-10.093-7.087-1.07-4.897 1.713-9.663 6.216-10.645ZM40.046 53.982c-2.037.268-4.048.98-6.774 2.344a3.063 3.063 0 0 1-4.108-1.365 3.056 3.056 0 0 1 1.367-4.103c3.027-1.514 5.729-2.545 8.714-2.939 2.98-.393 6.02-.12 9.695.643a3.058 3.058 0 1 1-1.247 5.987c-3.314-.688-5.606-.836-7.647-.567Z"/>
      <path fill="currentcolor" fill-rule="evenodd" d="M34.242 62.689a2.145 2.145 0 0 0-2.583 2.278c.37 4.255 3.663 8.51 8.053 11.481a26.698 26.698 0 0 0 6.894 3.324 37.377 37.377 0 0 0 1.082 3.802c1.39 4.07 3.303 7.916 6.357 10.362 3.253 2.607 7.374 3.303 12.305 1.898 2.566-.731 4.604-1.987 6.1-3.7 1.489-1.702 2.316-3.71 2.7-5.76.75-4.012-.144-8.433-1.382-12.056a34.743 34.743 0 0 0-.796-2.115c1.527-1.759 2.733-3.606 3.555-5.35.895-1.898 1.464-3.953 1.192-5.713a2.14 2.14 0 0 0-2.854-1.684C62.93 63.82 45.343 65.058 34.242 62.69Zm18.66 19.107c-1.853-5.424-1.764-9.628-1.477-12.335l3.265-.296c.5.595 1.145 1.504 1.782 2.64.969 1.729 1.602 3.427 1.704 4.538a2.754 2.754 0 0 0 2.993 2.492 2.753 2.753 0 0 0 2.494-2.99c-.205-2.252-1.275-4.752-2.383-6.728-.08-.143-.162-.286-.246-.429l2.278-.163c.256.216.5.413.722.59l.092.075.102.082c.543.438.983.811 1.415 1.28.823.892 1.823 2.36 2.91 5.543 1.112 3.252 1.678 6.613 1.18 9.267-.24 1.284-.715 2.33-1.433 3.153-.71.811-1.783 1.548-3.462 2.026-3.556 1.014-5.742.387-7.345-.898-1.803-1.445-3.296-4.059-4.59-7.847Z" clip-rule="evenodd"/>
      <path fill="currentcolor" fill-rule="evenodd" d="M.931 54.151A51.574 51.574 0 0 0 7.93 77.712c7.611 17.402 24.47 29.693 44.128 30.867 4.431 2.884 9.565 3.945 15.16 3.181 7.054-.963 14.935-4.724 18.504-13.144 13.406-9.921 21.747-26.174 20.859-44.096a51.572 51.572 0 0 0-6.998-23.56C91.252 11.918 71.85-1.01 49.83.063 21.337 1.449-.477 25.737.93 54.152Zm96.707-4.458c.815 16.463-7.182 31.306-19.834 39.923-2.148 6.876-8.096 10.125-14.21 10.96-4.774.652-8.802-.444-12.206-3.157C27.787 96.913 8.242 78.137 7.051 54.1 5.807 28.984 25.076 7.636 50.091 6.42c25.015-1.217 46.302 18.157 47.547 43.274Z" clip-rule="evenodd"/>
    </symbol>
    <symbol id="recraftr-emblem-dark" viewBox="0 0 107 112">
      <path fill="currentcolor" d="M52.903 81.796c-1.854-5.424-1.765-9.628-1.478-12.335l3.265-.296c.5.595 1.145 1.504 1.782 2.64.969 1.729 1.602 3.427 1.704 4.538a2.754 2.754 0 0 0 2.993 2.492 2.753 2.753 0 0 0 2.494-2.99c-.205-2.252-1.275-4.752-2.383-6.728-.08-.143-.162-.286-.246-.429l2.278-.163c.256.216.5.413.722.59l.092.075.102.082c.543.438.983.811 1.415 1.28.823.892 1.823 2.36 2.91 5.543 1.112 3.252 1.678 6.612 1.18 9.267-.24 1.284-.715 2.33-1.433 3.153-.71.811-1.783 1.548-3.462 2.026-3.556 1.014-5.742.387-7.345-.898-1.803-1.445-3.296-4.059-4.59-7.847Z"/>
      <path fill="currentcolor" fill-rule="evenodd" d="M7.93 77.712A51.574 51.574 0 0 1 .93 54.152C-.477 25.736 21.337 1.448 49.831.061 71.85-1.01 91.252 11.917 99.58 30.961a51.572 51.572 0 0 1 6.999 23.559c.888 17.922-7.453 34.175-20.859 44.096-3.569 8.42-11.45 12.181-18.505 13.144-5.594.764-10.728-.297-15.159-3.181C32.398 107.405 15.54 95.114 7.93 77.712Zm7.483-23.818c.837 16.896 12.676 30.64 28.209 34.58 1.489 3.495 3.63 7.096 6.932 9.742l-1.46-.189C26.271 96.21 7.941 77.645 6.785 54.314 5.53 28.99 24.979 7.276 50.47 6.035c25.492-1.24 46.993 18.482 48.247 43.805.775 15.643-6.338 29.874-17.866 38.777 0 0-.386-.477-.243-1.238.638-3.41.377-6.865-.25-9.957a37.465 37.465 0 0 0 9.732-27.162c-1.026-20.706-18.575-36.678-39.196-35.675-20.622 1.004-36.508 18.603-35.482 39.309Zm60.764-10.307c-1.07-4.897-5.59-8.07-10.093-7.087-4.503.982-7.286 5.748-6.216 10.645 1.071 4.896 5.59 8.07 10.093 7.087 4.504-.983 7.287-5.749 6.216-10.645ZM40.046 53.982c-2.037.268-4.048.98-6.774 2.344a3.063 3.063 0 0 1-4.108-1.365 3.056 3.056 0 0 1 1.367-4.103c3.027-1.514 5.729-2.545 8.714-2.939 2.98-.393 6.02-.12 9.695.643a3.058 3.058 0 1 1-1.247 5.987c-3.314-.688-5.606-.837-7.647-.567Zm-5.804 8.707a2.145 2.145 0 0 0-2.583 2.278c.37 4.255 3.663 8.51 8.053 11.481a26.701 26.701 0 0 0 6.894 3.324 37.43 37.43 0 0 0 1.082 3.802c1.39 4.07 3.303 7.916 6.357 10.362 3.253 2.607 7.374 3.302 12.305 1.898 2.566-.731 4.604-1.988 6.1-3.7 1.489-1.702 2.316-3.71 2.7-5.76.75-4.012-.144-8.433-1.382-12.056a34.747 34.747 0 0 0-.796-2.115c1.527-1.759 2.733-3.606 3.555-5.35.895-1.898 1.464-3.953 1.192-5.713a2.14 2.14 0 0 0-2.854-1.684C62.93 63.82 45.343 65.058 34.242 62.69Z" clip-rule="evenodd"/>
    </symbol>
    <symbol id="swatseo-logo" viewBox="0 0 697 106">
<path d="M40.6422 96.2801C32.0235 96.2801 24.7275 95.0001 18.7542 92.4401C12.7809 89.8801 8.21553 86.2961 5.0582 81.6881C1.9862 76.9948 0.450195 71.5761 0.450195 65.4321H26.8182C26.8182 67.6508 27.3302 69.6135 28.3542 71.3201C29.3782 72.9415 30.9569 74.2215 33.0902 75.1601C35.3089 76.0988 38.2102 76.5681 41.7942 76.5681C45.5489 76.5681 48.4929 75.9281 50.6262 74.6481C52.8449 73.3681 53.9542 71.5335 53.9542 69.1441C53.9542 67.4375 53.6555 66.0721 53.0582 65.0481C52.5462 63.9388 51.6075 63.0428 50.2422 62.3601C48.8769 61.6775 46.9569 61.1228 44.4822 60.6961C42.0075 60.1841 38.8502 59.6295 35.0102 59.0321C29.6342 58.2641 24.8982 57.1121 20.8022 55.5761C16.7062 54.0401 13.2929 52.1201 10.5622 49.8161C7.83153 47.5121 5.78353 44.7815 4.4182 41.6241C3.05286 38.4668 2.3702 34.8401 2.3702 30.7441C2.3702 24.4295 3.9062 19.0108 6.9782 14.4881C10.1355 9.96547 14.5729 6.50947 20.2902 4.12013C26.0929 1.7308 32.9622 0.536133 40.8982 0.536133C48.4075 0.536133 54.9355 1.7308 60.4822 4.12013C66.1142 6.42413 70.4662 9.70947 73.5382 13.9761C76.6955 18.1575 78.2742 23.0641 78.2742 28.6961H52.1622C52.0769 26.3921 51.4369 24.6001 50.2422 23.3201C49.0475 22.0401 47.5542 21.1441 45.7622 20.6321C43.9702 20.1201 42.1355 19.8641 40.2582 19.8641C38.0395 19.8641 36.0769 20.1628 34.3702 20.7601C32.7489 21.3575 31.4689 22.2108 30.5302 23.3201C29.6769 24.4295 29.2502 25.7521 29.2502 27.2881C29.2502 29.5068 29.8902 31.1708 31.1702 32.2801C32.5355 33.3041 34.6689 34.1148 37.5702 34.7121C40.5569 35.2241 44.4395 35.8641 49.2182 36.6321C52.9729 37.1441 56.6849 37.9121 60.3542 38.9361C64.1089 39.9601 67.5222 41.4961 70.5942 43.5441C73.7515 45.5921 76.2689 48.4508 78.1462 52.1201C80.0235 55.7895 80.9622 60.5681 80.9622 66.4561C80.9622 72.2588 79.4689 77.4215 76.4822 81.9441C73.4955 86.4668 69.0155 90.0081 63.0422 92.5681C57.1542 95.0428 49.6875 96.2801 40.6422 96.2801Z" fill="currentColor"/>
<path d="M104.462 95.0001L85.5182 1.68813H114.19L120.718 43.8001L123.79 66.7121H124.942L134.798 1.68813H166.286L176.654 66.9681H177.678L180.366 44.1841L186.51 1.68813H215.182L196.238 95.0001H160.91L151.054 37.4001H150.03L139.79 95.0001H104.462Z" fill="currentColor"/>
<path d="M210.744 95.0001L239.8 1.68813H276.792L305.848 95.0001H278.84L273.976 78.3601H242.616L237.752 95.0001H210.744ZM248.376 58.6481H268.216L262.712 39.8321L258.744 24.9841H257.848L253.88 39.8321L248.376 58.6481Z" fill="currentColor"/>
<path d="M322.002 95.0001V23.9601H296.274V1.68813H374.482V23.9601H347.986V95.0001H322.002Z" fill="currentColor"/>
<path d="M379.34 105.368L419.788 1.68813H429.772L389.58 105.368H379.34Z" fill="currentColor"/>
<path d="M478.49 96.1521C470.298 96.1521 463.514 94.8721 458.138 92.3121C452.848 89.7521 448.88 86.2108 446.234 81.6881C443.674 77.0801 442.309 71.8321 442.138 65.9441H453.53C453.616 70.2961 454.554 74.0935 456.346 77.3361C458.224 80.5788 460.954 83.0535 464.538 84.7601C468.208 86.4668 472.901 87.3201 478.618 87.3201C485.872 87.3201 491.674 85.9975 496.026 83.3521C500.464 80.6215 502.682 76.4828 502.682 70.9361C502.682 67.8641 502.213 65.3041 501.274 63.2561C500.336 61.1228 498.842 59.3735 496.794 58.0081C494.746 56.6428 492.058 55.4908 488.73 54.5521C485.402 53.5281 481.392 52.6321 476.698 51.8641C471.322 50.8401 466.629 49.6881 462.618 48.4081C458.608 47.1281 455.237 45.5495 452.506 43.6721C449.861 41.7095 447.856 39.3201 446.49 36.5041C445.125 33.6881 444.442 30.3175 444.442 26.3921C444.442 21.1868 445.765 16.6641 448.41 12.8241C451.056 8.8988 454.853 5.91213 459.802 3.86414C464.752 1.7308 470.725 0.664131 477.722 0.664131C484.805 0.664131 490.778 1.81613 495.642 4.12013C500.506 6.3388 504.261 9.45347 506.906 13.4641C509.552 17.4748 510.917 22.2108 511.002 27.6721H499.866C499.696 23.5761 498.672 20.1628 496.794 17.4321C494.917 14.7015 492.314 12.6535 488.986 11.2881C485.658 9.9228 481.733 9.24014 477.21 9.24014C472.602 9.24014 468.72 9.9228 465.562 11.2881C462.405 12.5681 459.973 14.3601 458.266 16.6641C456.56 18.9681 455.706 21.6988 455.706 24.8561C455.706 28.6108 456.56 31.5548 458.266 33.6881C460.058 35.7361 462.874 37.3575 466.714 38.5521C470.64 39.7468 475.717 40.8988 481.946 42.0081C486.213 42.6908 490.266 43.5868 494.106 44.6961C497.946 45.8055 501.36 47.3415 504.346 49.3041C507.333 51.2668 509.68 53.9121 511.386 57.2401C513.178 60.4828 514.074 64.7068 514.074 69.9121C514.074 75.1175 512.709 79.6828 509.978 83.6081C507.248 87.5335 503.237 90.6055 497.946 92.8241C492.656 95.0428 486.17 96.1521 478.49 96.1521Z" fill="currentColor"/>
<path d="M532.029 95.0001V1.68813H596.157V11.2881H542.909V42.7761H589.885V51.7361H542.909V85.2721H596.285V95.0001H532.029Z" fill="currentColor"/>
<path d="M651.069 96.1521C644.243 96.1521 638.013 95.0428 632.381 92.8241C626.835 90.6055 622.013 87.4055 617.917 83.2241C613.907 79.0428 610.835 74.0081 608.701 68.1201C606.568 62.2321 605.501 55.6615 605.501 48.4081C605.501 41.0695 606.568 34.4561 608.701 28.5681C610.92 22.6801 614.034 17.6881 618.045 13.5921C622.056 9.4108 626.835 6.2108 632.381 3.99213C638.013 1.77347 644.243 0.664131 651.069 0.664131C657.981 0.664131 664.211 1.77347 669.757 3.99213C675.389 6.2108 680.211 9.4108 684.221 13.5921C688.232 17.7735 691.304 22.8081 693.437 28.6961C695.656 34.4988 696.765 41.0695 696.765 48.4081C696.765 55.7468 695.656 62.3601 693.437 68.2481C691.304 74.1361 688.189 79.1708 684.093 83.3521C680.083 87.4481 675.261 90.6055 669.629 92.8241C664.083 95.0428 657.896 96.1521 651.069 96.1521ZM651.069 86.5521C658.152 86.5521 664.253 85.0161 669.373 81.9441C674.493 78.7868 678.461 74.3921 681.277 68.7601C684.093 63.0428 685.501 56.2588 685.501 48.4081C685.501 42.4348 684.691 37.1015 683.069 32.4081C681.448 27.7148 679.144 23.7468 676.157 20.5041C673.171 17.1761 669.544 14.6588 665.277 12.9521C661.096 11.1601 656.36 10.2641 651.069 10.2641C643.987 10.2641 637.885 11.8001 632.765 14.8721C627.731 17.9441 623.805 22.3388 620.989 28.0561C618.173 33.6881 616.765 40.4721 616.765 48.4081C616.765 54.2961 617.576 59.6295 619.197 64.4081C620.819 69.1015 623.08 73.1121 625.981 76.4401C628.968 79.6828 632.552 82.2001 636.733 83.9921C641 85.6988 645.779 86.5521 651.069 86.5521Z" fill="currentColor"/>
    
    </symbol>
    <symbol id="recraftr-typog" viewBox="0 0 460 88">
      <path fill="currentcolor" d="M359.954 40.476h20.562v24.417c0 7.553 1.896 13.016 5.688 16.389 3.792 3.3 9.079 4.95 15.86 4.95h9.516v-15.95h-6.672c-2.042 0-3.5-.403-4.375-1.209-.875-.807-1.313-2.126-1.313-3.96V40.476h12.251V24.858H399.22V9.899h-18.704v14.959h-20.562v-.55c0-3.227.729-5.463 2.188-6.71 1.458-1.246 3.974-1.76 7.547-1.54V.11c-.656-.073-1.677-.11-3.063-.11-8.313 0-14.62 1.98-18.923 5.94-4.302 3.886-6.453 9.605-6.453 17.158v1.76h-6.782v15.618h6.782V86.23h18.704V40.476Zm-223.726 7.039c0-7.626 1.641-14.408 4.922-20.348 3.281-6.013 7.839-10.669 13.673-13.968 5.906-3.373 12.578-5.06 20.016-5.06 9.115 0 16.918 2.42 23.408 7.26 6.49 4.839 10.828 11.438 13.016 19.797h-20.564c-1.531-3.226-3.719-5.682-6.562-7.369-2.771-1.686-5.943-2.53-9.517-2.53-5.76 0-10.427 2.017-14 6.05-3.573 4.033-5.36 9.422-5.36 16.168 0 6.746 1.787 12.136 5.36 16.169 3.573 4.032 8.24 6.049 14 6.049 3.574 0 6.746-.843 9.517-2.53 2.843-1.686 5.031-4.143 6.562-7.37h20.564c-2.188 8.36-6.526 14.96-13.016 19.799-6.49 4.766-14.293 7.15-23.408 7.15-7.438 0-14.11-1.65-20.016-4.95-5.834-3.373-10.392-8.03-13.673-13.969-3.281-5.94-4.922-12.722-4.922-20.348Z"/>
      <path fill="currentcolor" fill-rule="evenodd" d="m23.833 57.084 15.97 29.147h21.11l-17.72-30.577c5.616-1.686 9.845-4.546 12.689-8.579 2.917-4.033 4.375-8.616 4.375-13.748 0-4.547-1.057-8.653-3.172-12.32-2.115-3.739-5.323-6.672-9.626-8.798-4.229-2.127-9.37-3.19-15.422-3.19H.645v77.212h18.704V57.084h4.484Zm7.11-13.309H19.349V24.639h11.594c3.427 0 5.98.843 7.657 2.53 1.75 1.686 2.625 3.995 2.625 6.928 0 3.08-.875 5.463-2.625 7.15-1.678 1.686-4.23 2.53-7.657 2.53Zm98.261 16.279c.219-1.907.329-3.74.329-5.5 0-6.159-1.313-11.548-3.938-16.168-2.552-4.62-6.126-8.176-10.719-10.669-4.594-2.493-9.845-3.74-15.751-3.74-6.053 0-11.412 1.284-16.08 3.85-4.666 2.567-8.312 6.233-10.937 10.999-2.553 4.766-3.829 10.339-3.829 16.718 0 6.38 1.313 11.952 3.938 16.719 2.625 4.766 6.271 8.432 10.938 10.998 4.667 2.567 9.99 3.85 15.97 3.85 4.958 0 9.443-.916 13.454-2.75 4.01-1.833 7.328-4.362 9.953-7.589 2.698-3.226 4.558-6.856 5.579-10.889h-19.908c-1.823 3.96-5.068 5.94-9.735 5.94-3.135 0-5.797-.99-7.984-2.97-2.115-2.053-3.318-4.986-3.61-8.8h42.33Zm-22.095-18.148c2.188 1.906 3.282 4.473 3.282 7.699H86.983c.51-3.373 1.823-5.976 3.938-7.81 2.188-1.832 4.85-2.749 7.985-2.749 3.281 0 6.016.953 8.203 2.86Z" clip-rule="evenodd"/>
      <path fill="currentcolor" d="M246.517 27.167c-3.281 1.907-6.016 4.546-8.203 7.92v-10.23H219.61v61.374h18.704V57.744c0-5.06 1.167-8.579 3.5-10.559 2.333-2.053 5.834-3.08 10.501-3.08h5.14V24.198c-4.01 0-7.656.99-10.938 2.97Z"/>
      <path fill="currentcolor" fill-rule="evenodd" d="M261.434 55.434c0-6.306 1.166-11.842 3.5-16.608 2.406-4.766 5.651-8.432 9.735-10.999 4.083-2.566 8.641-3.85 13.672-3.85 4.303 0 8.058.88 11.267 2.64 3.281 1.76 5.797 4.07 7.547 6.93v-8.69h18.704v61.374h-18.704v-8.689c-1.823 2.86-4.375 5.17-7.657 6.93-3.208 1.76-6.964 2.64-11.266 2.64-4.959 0-9.48-1.284-13.563-3.85-4.084-2.64-7.329-6.343-9.735-11.11-2.334-4.839-3.5-10.412-3.5-16.718Zm45.721.11c0-4.692-1.313-8.395-3.938-11.108-2.552-2.714-5.688-4.07-9.407-4.07-3.719 0-6.891 1.356-9.516 4.07-2.552 2.64-3.828 6.306-3.828 10.998 0 4.693 1.276 8.433 3.828 11.22 2.625 2.712 5.797 4.069 9.516 4.069 3.719 0 6.855-1.357 9.407-4.07 2.625-2.713 3.938-6.416 3.938-11.109Z" clip-rule="evenodd"/>
      <path fill="currentcolor" d="M448.906 27.167c-3.281 1.907-6.015 4.546-8.203 7.92v-10.23h-18.704v61.374h18.704V57.744c0-5.06 1.167-8.579 3.5-10.559 2.334-2.053 5.834-3.08 10.501-3.08h5.14V24.198c-4.01 0-7.656.99-10.938 2.97Z"/>
    </symbol>
    <symbol id="colorful-brand-logo" viewBox="0 0 121 80">
      <g fill-rule="nonzero" stroke="#424349" stroke-width="2" fill="none">
        <path d="M69.872 72.986c14.024 9.254 32.89 5.95 43.106-7.607 10.645-14.125 7.823-34.205-6.303-44.85-11.75-8.854-27.928-8.516-39.258.543l-.613.49-.637-.46-2.51-1.813C49.594 9.99 30.64 13.217 20.443 26.748c-10.645 14.125-7.823 34.205 6.303 44.85 11.75 8.854 27.928 8.516 39.258-.543l.625-.5 3.243 2.431zm31.556-16.31c-5.838 7.746-16.85 9.293-24.595 3.456l-26.381-19.88-.315-.226a7.232 7.232 0 00-8.41 11.762l12.844 9.68-1.641.701a17.553 17.553 0 01-17.48-2.122c-7.746-5.838-9.294-16.85-3.457-24.595 5.837-7.747 16.849-9.294 24.595-3.457l26.381 19.88.315.226a7.232 7.232 0 008.41-11.762L78.85 30.66l1.641-.701a17.553 17.553 0 0117.48 2.122c7.746 5.838 9.294 16.85 3.457 24.595z" fill="#F3DF65"/>
        <path d="M65.874 68.989c14.025 9.254 32.891 5.95 43.107-7.607 10.644-14.125 7.822-34.205-6.303-44.85-11.75-8.854-27.928-8.516-39.258.542l-.614.49-.636-.459-2.51-1.813C45.597 5.993 26.64 9.22 16.445 22.75 5.801 36.876 8.623 56.956 22.748 67.6c11.75 8.854 27.928 8.516 39.259-.542l.624-.5 3.243 2.43zM97.43 52.678c-5.837 7.746-16.848 9.294-24.595 3.457l-26.38-19.88-.315-.226a7.232 7.232 0 00-8.41 11.761l12.844 9.681-1.642.7a17.553 17.553 0 01-17.48-2.122c-7.746-5.837-9.293-16.848-3.456-24.595 5.837-7.746 16.849-9.293 24.595-3.456l26.38 19.88.316.225a7.232 7.232 0 008.41-11.761l-12.845-9.68 1.642-.702a17.553 17.553 0 0117.48 2.123c7.746 5.837 9.293 16.849 3.456 24.595z" fill="#FFD2E5"/>
        <path d="M61.877 64.991c14.024 9.255 32.89 5.95 43.107-7.606 10.644-14.126 7.822-34.206-6.304-44.85-11.75-8.854-27.928-8.516-39.258.542l-.613.49-.637-.46-2.51-1.813C41.6 1.996 22.644 5.222 12.448 18.753 1.804 32.878 4.626 52.958 18.75 63.603c11.75 8.854 27.928 8.516 39.258-.542l.625-.5 3.243 2.43zm31.556-16.31c-5.837 7.746-16.849 9.293-24.595 3.456l-26.381-19.88-.315-.225a7.232 7.232 0 00-8.41 11.761l12.844 9.68-1.641.702a17.553 17.553 0 01-17.48-2.123C19.71 46.215 18.161 35.203 24 27.457 29.836 19.71 40.847 18.163 48.593 24l26.381 19.88.315.226a7.232 7.232 0 008.41-11.761l-12.844-9.681 1.642-.701a17.553 17.553 0 0117.48 2.123c7.746 5.837 9.293 16.848 3.456 24.595z" fill="#CEEED7"/>
        <path d="M57.88 60.994c14.024 9.254 32.89 5.95 43.106-7.607 10.644-14.125 7.822-34.205-6.303-44.85C82.933-.316 66.755.022 55.425 9.08l-.613.49-.637-.46-2.51-1.813C37.602-2.002 18.647 1.225 8.45 14.756-2.194 28.88.628 48.96 14.754 59.606c11.75 8.854 27.928 8.516 39.258-.543l.624-.5 3.244 2.431zm31.556-16.31c-5.838 7.745-16.85 9.293-24.595 3.456L38.46 28.26l-.315-.226a7.232 7.232 0 00-8.41 11.762l12.844 9.68-1.641.701a17.553 17.553 0 01-17.48-2.123C15.712 42.217 14.164 31.206 20 23.46c5.837-7.747 16.849-9.294 24.595-3.457l26.381 19.88.315.226a7.232 7.232 0 008.41-11.762l-12.844-9.68 1.641-.701a17.553 17.553 0 0117.48 2.122c7.746 5.838 9.294 16.849 3.457 24.595z" fill="#CAAFF7"/>
      </g>
    </symbol>  
    <symbol id="404-image" viewBox="0 0 359 184">
      <g transform="translate(4 4)" stroke="#424349" stroke-width="8" fill="none" fill-rule="evenodd">
        <circle fill="#FFD2E5" fill-rule="nonzero" cx="179" cy="88" r="79"/>
        <rect fill="#F3DF65" x="88" width="37" height="176" rx="18.5"/>
        <rect fill="#CEEED7" width="37" height="104" rx="18.5"/>
        <rect fill="#CAAFF7" transform="rotate(-90 62.5 88)" x="44" y="26" width="37" height="124" rx="18.5"/>
        <rect fill="#F3DF65" transform="rotate(-90 288.5 88)" x="270" y="26" width="37" height="124" rx="18.5"/>
        <rect fill="#CAAFF7" x="226" width="37" height="104" rx="18.5"/>
        <rect fill="#CEEED7" x="314" width="37" height="176" rx="18.5"/>
      </g>
    </symbol>
    <symbol id="403-image" viewBox="0 0 359 184">
      <g stroke="#424349" stroke-width="8" fill="none" fill-rule="evenodd">
        <circle fill="#FFD2E5" fill-rule="nonzero" cx="183" cy="92" r="79"/>
        <rect fill="#F3DF65" x="92" y="4" width="37" height="176" rx="18.5"/>
        <rect fill="#CEEED7" x="4" y="4" width="37" height="104" rx="18.5"/>
        <rect fill="#CAAFF7" transform="rotate(-90 66.5 92)" x="48" y="30" width="37" height="124" rx="18.5"/>
        <path d="M229.767 181.194c-9.281-4.274-13.34-15.261-9.067-24.542 4.225-9.175 15.013-13.247 24.225-9.208l.317.142c6.071 2.796 12.674 4.308 19.52 4.409l.783.005c26.765-.026 48.452-21.732 48.452-48.5 0-26.518-21.282-48.065-47.698-48.494l-.802-.006c-10.217 0-18.5-8.283-18.5-18.5s8.283-18.5 18.5-18.5c47.22 0 85.5 38.28 85.5 85.5 0 46.717-37.47 84.689-84.021 85.487l-1.48.013c-12.478 0-24.613-2.687-35.73-7.806z" id="Path" fill="#CEEED7" fill-rule="nonzero" transform="rotate(35 284.998 103.5)"/>
        <rect fill="#F3DF65" transform="rotate(-90 272.5 22)" x="254" y="-46" width="37" height="136" rx="18.5"/>
        <rect fill="#CAAFF7" transform="rotate(48 298.675 47.14)" x="280.175" y="-5.36" width="37" height="105" rx="18.5"/>
      </g>
    </symbol>
    <symbol id="icon-chevron-up" viewBox="0 0 20 20">
      <path fill-rule="evenodd" d="M14.707 12.707a1 1 0 01-1.414 0L10 9.414l-3.293 3.293a1 1 0 01-1.414-1.414l4-4a1 1 0 011.414 0l4 4a1 1 0 010 1.414z" clip-rule="evenodd"/>
    </symbol>
    <symbol id="icon-chevron-right" viewBox="0 0 20 20">
      <path fill-rule="evenodd" d="M7.293 14.707a1 1 0 010-1.414L10.586 10 7.293 6.707a1 1 0 011.414-1.414l4 4a1 1 0 010 1.414l-4 4a1 1 0 01-1.414 0z" clip-rule="evenodd"/>
    </symbol>
    <symbol id="icon-chevron-down" viewBox="0 0 20 20">
      <path fill-rule="evenodd" d="M5.293 7.293a1 1 0 011.414 0L10 10.586l3.293-3.293a1 1 0 111.414 1.414l-4 4a1 1 0 01-1.414 0l-4-4a1 1 0 010-1.414z" clip-rule="evenodd"/>
    </symbol>
    <symbol id="icon-chevron-left" viewBox="0 0 20 20">
      <path fill-rule="evenodd" d="M12.707 5.293a1 1 0 010 1.414L9.414 10l3.293 3.293a1 1 0 01-1.414 1.414l-4-4a1 1 0 010-1.414l4-4a1 1 0 011.414 0z" clip-rule="evenodd"/>
    </symbol>
    <symbol id="icon-printer" viewBox="0 0 20 20">
      <path fill-rule="evenodd" d="M5 4v3H4a2 2 0 00-2 2v3a2 2 0 002 2h1v2a2 2 0 002 2h6a2 2 0 002-2v-2h1a2 2 0 002-2V9a2 2 0 00-2-2h-1V4a2 2 0 00-2-2H7a2 2 0 00-2 2zm8 0H7v3h6V4zm0 8H7v4h6v-4z" clip-rule="evenodd"/>
    </symbol>
    <symbol id="icon-calendar" viewBox="0 0 20 20">
      <path fill-rule="evenodd" d="M6 2a1 1 0 00-1 1v1H4a2 2 0 00-2 2v10a2 2 0 002 2h12a2 2 0 002-2V6a2 2 0 00-2-2h-1V3a1 1 0 10-2 0v1H7V3a1 1 0 00-1-1zm0 5a1 1 0 000 2h8a1 1 0 100-2H6z" clip-rule="evenodd"/>
    </symbol>
    <symbol id="icon-x" viewBox="0 0 20 20">
      <path fill-rule="evenodd" d="M4.293 4.293a1 1 0 011.414 0L10 8.586l4.293-4.293a1 1 0 111.414 1.414L11.414 10l4.293 4.293a1 1 0 01-1.414 1.414L10 11.414l-4.293 4.293a1 1 0 01-1.414-1.414L8.586 10 4.293 5.707a1 1 0 010-1.414z" clip-rule="evenodd"/>
    </symbol>
    <symbol id="icon-user" viewBox="0 0 20 20">
      <path fill-rule="evenodd" d="M10 9a3 3 0 100-6 3 3 0 000 6zm-7 9a7 7 0 1114 0H3z" clip-rule="evenodd"/>
    </symbol>
    <symbol id="icon-map-marker" viewBox="0 0 20 20">
      <path fill-rule="evenodd" d="M5.05 4.05a7 7 0 119.9 9.9L10 18.9l-4.95-4.95a7 7 0 010-9.9zM10 11a2 2 0 100-4 2 2 0 000 4z" clip-rule="evenodd"/>
    </symbol>
    <symbol id="icon-pencil" viewBox="0 0 20 20">
      <path d="M13.586 3.586a2 2 0 112.828 2.828l-.793.793-2.828-2.828.793-.793zm-2.207 2.207L3 14.172V17h2.828l8.38-8.379-2.83-2.828z"/>
    </symbol>
    <symbol id="icon-pencil" viewBox="0 0 20 20">
      <path d="M13.586 3.586a2 2 0 112.828 2.828l-.793.793-2.828-2.828.793-.793zm-2.207 2.207L3 14.172V17h2.828l8.38-8.379-2.83-2.828z"/>
    </symbol>
    <symbol id="icon-reply" viewBox="0 0 20 20">
      <path fill-rule="evenodd" d="M7.707 3.293a1 1 0 010 1.414L5.414 7H11a7 7 0 017 7v2a1 1 0 11-2 0v-2a5 5 0 00-5-5H5.414l2.293 2.293a1 1 0 11-1.414 1.414l-4-4a1 1 0 010-1.414l4-4a1 1 0 011.414 0z" clip-rule="evenodd"/>
    </symbol>
    <symbol id="icon-dots-vertical" viewBox="0 0 20 20">
      <path d="M10 6a2 2 0 110-4 2 2 0 010 4zm0 6a2 2 0 110-4 2 2 0 010 4zm0 6a2 2 0 110-4 2 2 0 010 4z"/>
    </symbol>
    <symbol id="icon-star" viewBox="0 0 20 20">
      <path d="M9.049 2.927c.3-.921 1.603-.921 1.902 0l1.07 3.292a1 1 0 00.95.69h3.462c.969 0 1.371 1.24.588 1.81l-2.8 2.034a1 1 0 00-.364 1.118l1.07 3.292c.3.921-.755 1.688-1.54 1.118l-2.8-2.034a1 1 0 00-1.175 0l-2.8 2.034c-.784.57-1.838-.197-1.539-1.118l1.07-3.292a1 1 0 00-.364-1.118L2.98 8.72c-.783-.57-.38-1.81.588-1.81h3.461a1 1 0 00.951-.69l1.07-3.292z" />
    </symbol>
    <symbol id="icon-pencil" viewBox="0 0 20 20">
      <path d="M13.586 3.586a2 2 0 112.828 2.828l-.793.793-2.828-2.828.793-.793zm-2.207 2.207L3 14.172V17h2.828l8.38-8.379-2.83-2.828z"/>
    </symbol>
    <symbol id="icon-user" viewBox="0 0 20 20">
      <path fill-rule="evenodd" d="M10 9a3 3 0 100-6 3 3 0 000 6zm-7 9a7 7 0 1114 0H3z" clip-rule="evenodd"/>
    </symbol>
    <symbol id="icon-map-marker" viewBox="0 0 20 20">
      <path fill-rule="evenodd" d="M5.05 4.05a7 7 0 119.9 9.9L10 18.9l-4.95-4.95a7 7 0 010-9.9zM10 11a2 2 0 100-4 2 2 0 000 4z" clip-rule="evenodd"/>
    </symbol>
    <symbol id="icon-x-circle" viewBox="0 0 20 20">
      <path fill-rule="evenodd" d="M10 18a8 8 0 100-16 8 8 0 000 16zM8.707 7.293a1 1 0 00-1.414 1.414L8.586 10l-1.293 1.293a1 1 0 101.414 1.414L10 11.414l1.293 1.293a1 1 0 001.414-1.414L11.414 10l1.293-1.293a1 1 0 00-1.414-1.414L10 8.586 8.707 7.293z" clip-rule="evenodd" />
    </symbol>
    <symbol id="icon-filter" viewBox="0 0 20 20">
      <path fill-rule="evenodd" d="M3 3a1 1 0 011-1h12a1 1 0 011 1v3a1 1 0 01-.293.707L12 11.414V15a1 1 0 01-.293.707l-2 2A1 1 0 018 17v-5.586L3.293 6.707A1 1 0 013 6V3z" clip-rule="evenodd"/>
    </symbol>
  
    <symbol id="icon-badge-check" viewBox="0 0 24 24">
      <path fill-rule="evenodd" d="M6.267 3.455a3.066 3.066 0 001.745-.723 3.066 3.066 0 013.976 0 3.066 3.066 0 001.745.723 3.066 3.066 0 012.812 2.812c.051.643.304 1.254.723 1.745a3.066 3.066 0 010 3.976 3.066 3.066 0 00-.723 1.745 3.066 3.066 0 01-2.812 2.812 3.066 3.066 0 00-1.745.723 3.066 3.066 0 01-3.976 0 3.066 3.066 0 00-1.745-.723 3.066 3.066 0 01-2.812-2.812 3.066 3.066 0 00-.723-1.745 3.066 3.066 0 010-3.976 3.066 3.066 0 00.723-1.745 3.066 3.066 0 012.812-2.812zm7.44 5.252a1 1 0 00-1.414-1.414L9 10.586 7.707 9.293a1 1 0 00-1.414 1.414l2 2a1 1 0 001.414 0l4-4z" clip-rule="evenodd" />
    </symbol>
    <symbol id="icon-download" viewBox="0 0 20 20">
      <path fill-rule="evenodd" d="M3 17a1 1 0 011-1h12a1 1 0 110 2H4a1 1 0 01-1-1zm3.293-7.707a1 1 0 011.414 0L9 10.586V3a1 1 0 112 0v7.586l1.293-1.293a1 1 0 111.414 1.414l-3 3a1 1 0 01-1.414 0l-3-3a1 1 0 010-1.414z" clip-rule="evenodd" />
    </symbol>
    <symbol id="icon-refresh" viewBox="0 0 20 20">
      <path fill-rule="evenodd" d="M4 2a1 1 0 011 1v2.101a7.002 7.002 0 0111.601 2.566 1 1 0 11-1.885.666A5.002 5.002 0 005.999 7H9a1 1 0 010 2H4a1 1 0 01-1-1V3a1 1 0 011-1zm.008 9.057a1 1 0 011.276.61A5.002 5.002 0 0014.001 13H11a1 1 0 110-2h5a1 1 0 011 1v5a1 1 0 11-2 0v-2.101a7.002 7.002 0 01-11.601-2.566 1 1 0 01.61-1.276z" clip-rule="evenodd" />
    </symbol>
    <symbol id="icon-dash" viewBox="0 0 20 20">
      <path d="M5.555 17.776l8-16 .894.448-8 16-.894-.448z" />
    </symbol>
    <symbol id="icon-minus" viewBox="0 0 20 20">
      <path fill-rule="evenodd" d="M3 10a1 1 0 011-1h12a1 1 0 110 2H4a1 1 0 01-1-1z" clip-rule="evenodd" />
    </symbol>
    <symbol id="icon-minus-sm" viewBox="0 0 20 20">
      <path fill-rule="evenodd" d="M5 10a1 1 0 011-1h8a1 1 0 110 2H6a1 1 0 01-1-1z" clip-rule="evenodd" />
    </symbol>
    <symbol id="icon-minus-circle" viewBox="0 0 20 20">
      <path fill-rule="evenodd" d="M10 18a8 8 0 100-16 8 8 0 000 16zM7 9a1 1 0 000 2h6a1 1 0 100-2H7z" clip-rule="evenodd" />
    </symbol>
    <symbol id="icon-dots-circle-horizontal" viewBox="0 0 20 20">
      <path fill-rule="evenodd" d="M10 18a8 8 0 100-16 8 8 0 000 16zM7 9H5v2h2V9zm8 0h-2v2h2V9zM9 9h2v2H9V9z" clip-rule="evenodd" />
    </symbol>
  </defs>
</svg>
