<svg width="247" height="37" viewBox="0 0 247 37" fill="none" xmlns="http://www.w3.org/2000/svg">
<path d="M59.325 29C59.1417 29 58.9917 28.9417 58.875 28.825C58.7583 28.7083 58.7 28.5583 58.7 28.375V14.975H54.15C53.9833 14.975 53.8417 14.9167 53.725 14.8C53.6083 14.6833 53.55 14.5417 53.55 14.375V12.125C53.55 11.9417 53.6083 11.7917 53.725 11.675C53.8417 11.5583 53.9833 11.5 54.15 11.5H67.25C67.4333 11.5 67.5833 11.5583 67.7 11.675C67.8167 11.7917 67.875 11.9417 67.875 12.125V14.375C67.875 14.5417 67.8167 14.6833 67.7 14.8C67.5833 14.9167 67.4333 14.975 67.25 14.975H62.725V28.375C62.725 28.5583 62.6667 28.7083 62.55 28.825C62.4333 28.9417 62.2833 29 62.1 29H59.325ZM72.3834 29C72.1501 29 71.9667 28.9417 71.8334 28.825C71.7167 28.7083 71.6251 28.5583 71.5584 28.375L67.9834 16.8C67.9501 16.7167 67.9334 16.6333 67.9334 16.55C67.9334 16.4 67.9834 16.275 68.0834 16.175C68.2001 16.0583 68.3334 16 68.4834 16H70.6834C70.9001 16 71.0667 16.0583 71.1834 16.175C71.3001 16.2917 71.3751 16.4 71.4084 16.5L73.6834 24.225L76.1084 16.55C76.1417 16.4333 76.2167 16.3167 76.3334 16.2C76.4667 16.0667 76.6501 16 76.8834 16H78.3084C78.5417 16 78.7167 16.0667 78.8334 16.2C78.9667 16.3167 79.0501 16.4333 79.0834 16.55L81.5084 24.225L83.7834 16.5C83.8001 16.4 83.8667 16.2917 83.9834 16.175C84.1167 16.0583 84.2834 16 84.4834 16H86.6834C86.8334 16 86.9584 16.0583 87.0584 16.175C87.1751 16.275 87.2334 16.4 87.2334 16.55C87.2334 16.6333 87.2251 16.7167 87.2084 16.8L83.6084 28.375C83.5584 28.5583 83.4667 28.7083 83.3334 28.825C83.2167 28.9417 83.0417 29 82.8084 29H80.8834C80.6501 29 80.4667 28.9417 80.3334 28.825C80.2001 28.7083 80.1001 28.5583 80.0334 28.375L77.6084 20.975L75.1334 28.375C75.0834 28.5583 74.9917 28.7083 74.8584 28.825C74.7251 28.9417 74.5417 29 74.3084 29H72.3834ZM94.9697 29.25C93.0531 29.25 91.5281 28.7167 90.3947 27.65C89.2781 26.5833 88.6864 25.0333 88.6197 23C88.6197 22.8667 88.6197 22.6917 88.6197 22.475C88.6197 22.2417 88.6197 22.0583 88.6197 21.925C88.6864 20.6417 88.9781 19.5417 89.4947 18.625C90.0114 17.6917 90.7364 16.9833 91.6697 16.5C92.6031 16 93.6947 15.75 94.9447 15.75C96.3447 15.75 97.5114 16.0417 98.4447 16.625C99.3947 17.1917 100.103 17.975 100.57 18.975C101.053 19.9583 101.295 21.0917 101.295 22.375V22.95C101.295 23.1167 101.228 23.2583 101.095 23.375C100.978 23.4917 100.836 23.55 100.67 23.55H92.4947C92.4947 23.5667 92.4947 23.6 92.4947 23.65C92.4947 23.6833 92.4947 23.7167 92.4947 23.75C92.5114 24.2833 92.6114 24.775 92.7947 25.225C92.9947 25.6583 93.2697 26.0083 93.6197 26.275C93.9864 26.5417 94.4197 26.675 94.9197 26.675C95.3364 26.675 95.6781 26.6167 95.9447 26.5C96.2114 26.3833 96.4281 26.2417 96.5947 26.075C96.7781 25.9083 96.9114 25.7667 96.9947 25.65C97.1447 25.4833 97.2614 25.3833 97.3447 25.35C97.4447 25.3 97.5947 25.275 97.7947 25.275H100.395C100.561 25.275 100.695 25.325 100.795 25.425C100.911 25.5083 100.961 25.6333 100.945 25.8C100.928 26.0667 100.786 26.4 100.52 26.8C100.27 27.1833 99.8947 27.5667 99.3947 27.95C98.8947 28.3167 98.2697 28.625 97.5197 28.875C96.7864 29.125 95.9364 29.25 94.9697 29.25ZM92.4947 21.275H97.3947V21.225C97.3947 20.625 97.2947 20.1083 97.0947 19.675C96.9114 19.225 96.6364 18.875 96.2697 18.625C95.9031 18.375 95.4614 18.25 94.9447 18.25C94.4281 18.25 93.9864 18.375 93.6197 18.625C93.2531 18.875 92.9697 19.225 92.7697 19.675C92.5864 20.1083 92.4947 20.625 92.4947 21.225V21.275ZM109.594 29.25C107.677 29.25 106.152 28.7167 105.019 27.65C103.902 26.5833 103.31 25.0333 103.244 23C103.244 22.8667 103.244 22.6917 103.244 22.475C103.244 22.2417 103.244 22.0583 103.244 21.925C103.31 20.6417 103.602 19.5417 104.119 18.625C104.635 17.6917 105.36 16.9833 106.294 16.5C107.227 16 108.319 15.75 109.569 15.75C110.969 15.75 112.135 16.0417 113.069 16.625C114.019 17.1917 114.727 17.975 115.194 18.975C115.677 19.9583 115.919 21.0917 115.919 22.375V22.95C115.919 23.1167 115.852 23.2583 115.719 23.375C115.602 23.4917 115.46 23.55 115.294 23.55H107.119C107.119 23.5667 107.119 23.6 107.119 23.65C107.119 23.6833 107.119 23.7167 107.119 23.75C107.135 24.2833 107.235 24.775 107.419 25.225C107.619 25.6583 107.894 26.0083 108.244 26.275C108.61 26.5417 109.044 26.675 109.544 26.675C109.96 26.675 110.302 26.6167 110.569 26.5C110.835 26.3833 111.052 26.2417 111.219 26.075C111.402 25.9083 111.535 25.7667 111.619 25.65C111.769 25.4833 111.885 25.3833 111.969 25.35C112.069 25.3 112.219 25.275 112.419 25.275H115.019C115.185 25.275 115.319 25.325 115.419 25.425C115.535 25.5083 115.585 25.6333 115.569 25.8C115.552 26.0667 115.41 26.4 115.144 26.8C114.894 27.1833 114.519 27.5667 114.019 27.95C113.519 28.3167 112.894 28.625 112.144 28.875C111.41 29.125 110.56 29.25 109.594 29.25ZM107.119 21.275H112.019V21.225C112.019 20.625 111.919 20.1083 111.719 19.675C111.535 19.225 111.26 18.875 110.894 18.625C110.527 18.375 110.085 18.25 109.569 18.25C109.052 18.25 108.61 18.375 108.244 18.625C107.877 18.875 107.594 19.225 107.394 19.675C107.21 20.1083 107.119 20.625 107.119 21.225V21.275ZM124.619 29C123.586 29 122.702 28.8333 121.969 28.5C121.236 28.15 120.677 27.6167 120.294 26.9C119.927 26.1833 119.744 25.2833 119.744 24.2V18.95H117.794C117.611 18.95 117.461 18.8917 117.344 18.775C117.227 18.6583 117.169 18.5083 117.169 18.325V16.625C117.169 16.4417 117.227 16.2917 117.344 16.175C117.461 16.0583 117.611 16 117.794 16H119.744V11.875C119.744 11.6917 119.802 11.5417 119.919 11.425C120.052 11.3083 120.202 11.25 120.369 11.25H122.819C123.002 11.25 123.152 11.3083 123.269 11.425C123.386 11.5417 123.444 11.6917 123.444 11.875V16H126.569C126.736 16 126.877 16.0583 126.994 16.175C127.111 16.2917 127.169 16.4417 127.169 16.625V18.325C127.169 18.5083 127.111 18.6583 126.994 18.775C126.877 18.8917 126.736 18.95 126.569 18.95H123.444V23.9C123.444 24.5333 123.552 25.0333 123.769 25.4C124.002 25.75 124.402 25.925 124.969 25.925H126.794C126.961 25.925 127.102 25.9833 127.219 26.1C127.336 26.2167 127.394 26.3583 127.394 26.525V28.375C127.394 28.5583 127.336 28.7083 127.219 28.825C127.102 28.9417 126.961 29 126.794 29H124.619ZM135.993 29C135.809 29 135.659 28.9417 135.543 28.825C135.426 28.7083 135.368 28.5583 135.368 28.375V12.125C135.368 11.9417 135.426 11.7917 135.543 11.675C135.659 11.5583 135.809 11.5 135.993 11.5H138.718C138.901 11.5 139.051 11.5583 139.168 11.675C139.284 11.7917 139.343 11.9417 139.343 12.125V18.375H146.118V12.125C146.118 11.9417 146.176 11.7917 146.293 11.675C146.409 11.5583 146.559 11.5 146.743 11.5H149.468C149.651 11.5 149.801 11.5583 149.918 11.675C150.034 11.7917 150.093 11.9417 150.093 12.125V28.375C150.093 28.5583 150.034 28.7083 149.918 28.825C149.801 28.9417 149.651 29 149.468 29H146.743C146.559 29 146.409 28.9417 146.293 28.825C146.176 28.7083 146.118 28.5583 146.118 28.375V21.925H139.343V28.375C139.343 28.5583 139.284 28.7083 139.168 28.825C139.051 28.9417 138.901 29 138.718 29H135.993ZM158.3 29.25C157.334 29.25 156.475 29.0333 155.725 28.6C154.992 28.15 154.417 27.5083 154 26.675C153.6 25.825 153.4 24.8 153.4 23.6V16.625C153.4 16.4417 153.459 16.2917 153.575 16.175C153.692 16.0583 153.834 16 154 16H156.65C156.834 16 156.984 16.0583 157.1 16.175C157.217 16.2917 157.275 16.4417 157.275 16.625V23.45C157.275 25.3167 158.092 26.25 159.725 26.25C160.509 26.25 161.125 26.0083 161.575 25.525C162.042 25.025 162.275 24.3333 162.275 23.45V16.625C162.275 16.4417 162.334 16.2917 162.45 16.175C162.567 16.0583 162.717 16 162.9 16H165.55C165.717 16 165.859 16.0583 165.975 16.175C166.092 16.2917 166.15 16.4417 166.15 16.625V28.375C166.15 28.5583 166.092 28.7083 165.975 28.825C165.859 28.9417 165.717 29 165.55 29H163.1C162.917 29 162.767 28.9417 162.65 28.825C162.534 28.7083 162.475 28.5583 162.475 28.375V27.4C162.042 28 161.484 28.4583 160.8 28.775C160.117 29.0917 159.284 29.25 158.3 29.25ZM169.897 29C169.73 29 169.588 28.9417 169.472 28.825C169.355 28.7083 169.297 28.5583 169.297 28.375V16.625C169.297 16.4417 169.355 16.2917 169.472 16.175C169.588 16.0583 169.73 16 169.897 16H172.347C172.53 16 172.68 16.0583 172.797 16.175C172.913 16.2917 172.972 16.4417 172.972 16.625V17.6C173.405 17.0667 173.963 16.625 174.647 16.275C175.33 15.925 176.163 15.75 177.147 15.75C178.13 15.75 178.988 15.975 179.722 16.425C180.472 16.8583 181.055 17.5 181.472 18.35C181.905 19.1833 182.122 20.2 182.122 21.4V28.375C182.122 28.5583 182.055 28.7083 181.922 28.825C181.805 28.9417 181.663 29 181.497 29H178.847C178.663 29 178.513 28.9417 178.397 28.825C178.28 28.7083 178.222 28.5583 178.222 28.375V21.55C178.222 20.6667 178.005 19.9833 177.572 19.5C177.155 19 176.538 18.75 175.722 18.75C174.938 18.75 174.313 19 173.847 19.5C173.38 19.9833 173.147 20.6667 173.147 21.55V28.375C173.147 28.5583 173.088 28.7083 172.972 28.825C172.855 28.9417 172.713 29 172.547 29H169.897ZM191.221 29C190.187 29 189.304 28.8333 188.571 28.5C187.837 28.15 187.279 27.6167 186.896 26.9C186.529 26.1833 186.346 25.2833 186.346 24.2V18.95H184.396C184.212 18.95 184.062 18.8917 183.946 18.775C183.829 18.6583 183.771 18.5083 183.771 18.325V16.625C183.771 16.4417 183.829 16.2917 183.946 16.175C184.062 16.0583 184.212 16 184.396 16H186.346V11.875C186.346 11.6917 186.404 11.5417 186.521 11.425C186.654 11.3083 186.804 11.25 186.971 11.25H189.421C189.604 11.25 189.754 11.3083 189.871 11.425C189.987 11.5417 190.046 11.6917 190.046 11.875V16H193.171C193.337 16 193.479 16.0583 193.596 16.175C193.712 16.2917 193.771 16.4417 193.771 16.625V18.325C193.771 18.5083 193.712 18.6583 193.596 18.775C193.479 18.8917 193.337 18.95 193.171 18.95H190.046V23.9C190.046 24.5333 190.154 25.0333 190.371 25.4C190.604 25.75 191.004 25.925 191.571 25.925H193.396C193.562 25.925 193.704 25.9833 193.821 26.1C193.937 26.2167 193.996 26.3583 193.996 26.525V28.375C193.996 28.5583 193.937 28.7083 193.821 28.825C193.704 28.9417 193.562 29 193.396 29H191.221ZM201.977 29.25C200.06 29.25 198.535 28.7167 197.402 27.65C196.285 26.5833 195.693 25.0333 195.627 23C195.627 22.8667 195.627 22.6917 195.627 22.475C195.627 22.2417 195.627 22.0583 195.627 21.925C195.693 20.6417 195.985 19.5417 196.502 18.625C197.018 17.6917 197.743 16.9833 198.677 16.5C199.61 16 200.702 15.75 201.952 15.75C203.352 15.75 204.518 16.0417 205.452 16.625C206.402 17.1917 207.11 17.975 207.577 18.975C208.06 19.9583 208.302 21.0917 208.302 22.375V22.95C208.302 23.1167 208.235 23.2583 208.102 23.375C207.985 23.4917 207.843 23.55 207.677 23.55H199.502C199.502 23.5667 199.502 23.6 199.502 23.65C199.502 23.6833 199.502 23.7167 199.502 23.75C199.518 24.2833 199.618 24.775 199.802 25.225C200.002 25.6583 200.277 26.0083 200.627 26.275C200.993 26.5417 201.427 26.675 201.927 26.675C202.343 26.675 202.685 26.6167 202.952 26.5C203.218 26.3833 203.435 26.2417 203.602 26.075C203.785 25.9083 203.918 25.7667 204.002 25.65C204.152 25.4833 204.268 25.3833 204.352 25.35C204.452 25.3 204.602 25.275 204.802 25.275H207.402C207.568 25.275 207.702 25.325 207.802 25.425C207.918 25.5083 207.968 25.6333 207.952 25.8C207.935 26.0667 207.793 26.4 207.527 26.8C207.277 27.1833 206.902 27.5667 206.402 27.95C205.902 28.3167 205.277 28.625 204.527 28.875C203.793 29.125 202.943 29.25 201.977 29.25ZM199.502 21.275H204.402V21.225C204.402 20.625 204.302 20.1083 204.102 19.675C203.918 19.225 203.643 18.875 203.277 18.625C202.91 18.375 202.468 18.25 201.952 18.25C201.435 18.25 200.993 18.375 200.627 18.625C200.26 18.875 199.977 19.225 199.777 19.675C199.593 20.1083 199.502 20.625 199.502 21.225V21.275ZM211.401 29C211.234 29 211.092 28.9417 210.976 28.825C210.859 28.7083 210.801 28.5583 210.801 28.375V16.625C210.801 16.4583 210.859 16.3167 210.976 16.2C211.092 16.0667 211.234 16 211.401 16H213.851C214.017 16 214.159 16.0667 214.276 16.2C214.409 16.3167 214.476 16.4583 214.476 16.625V17.625C214.892 17.1083 215.401 16.7083 216.001 16.425C216.617 16.1417 217.326 16 218.126 16H219.201C219.367 16 219.509 16.0583 219.626 16.175C219.742 16.2917 219.801 16.4417 219.801 16.625V18.775C219.801 18.9583 219.742 19.1083 219.626 19.225C219.509 19.3417 219.367 19.4 219.201 19.4H217.001C216.267 19.4 215.692 19.6083 215.276 20.025C214.859 20.425 214.651 21 214.651 21.75V28.375C214.651 28.5583 214.592 28.7083 214.476 28.825C214.359 28.9417 214.209 29 214.026 29H211.401Z" fill="white"/>
<path d="M25.7096 31.4276L23.4563 32.1775L13.7031 22.4243L15.2044 20.9224L25.7096 31.4276Z" fill="#D8D8D8"/>
<path d="M30.1912 32.9686L27.1837 35.9761L23.4589 32.1769L24.8857 23.1438C25.1749 21.3125 24.968 19.4659 24.3227 17.7812C24.3227 17.7812 24.1593 15.1984 23.1172 14.1511L24.633 12.748C25.6512 13.7819 27.509 14.5945 27.509 14.5945C28.635 16.7193 29.2314 19.0977 29.2314 21.5227C29.2314 22.289 29.1719 23.0602 29.0507 23.8299L27.9698 30.6735L30.1912 32.9686Z" fill="#F3F3F3"/>
<path d="M26.3447 12.748L23.3008 15.792C23.712 16.4193 24.0523 17.0867 24.3183 17.7815L27.5052 14.5946C27.1659 13.9542 26.7785 13.3368 26.3447 12.748Z" fill="#F3F3F3"/>
<path d="M26.3435 12.7481L23.2999 15.7917C23.1057 15.4954 22.8959 15.2091 22.6712 14.9319C22.4514 14.6612 22.2175 14.4003 21.9688 14.1508L24.9741 11.144C25.4731 11.6487 25.9296 12.1853 26.3435 12.7481V12.7481Z" fill="#B0B0B0"/>
<path d="M15.205 20.9218L13.7038 22.4237L3.91016 12.6301L5.1612 10.8779L15.205 20.9218Z" fill="#CBCBCB"/>
<path d="M23.3041 11.2813L21.9731 12.9591L21.7275 12.6054C20.6764 11.5543 18.3075 11.7663 18.3075 11.7663C17.1226 11.3125 15.8575 11.0756 14.5738 11.0756C14.0323 11.0756 13.4879 11.1174 12.945 11.2032L3.91191 12.63L0.175781 8.84781L3.18326 5.84033L5.16509 7.86823L12.4169 6.8681C15.5708 6.43297 18.7397 7.03063 21.4764 8.51084C21.4764 8.51084 22.0937 9.33355 23.117 10.3569C23.144 10.3838 23.2771 11.2536 23.3041 11.2813V11.2813Z" fill="white"/>
<path d="M18.3047 11.7676C18.9995 12.0336 19.6669 12.3739 20.2942 12.7851L23.3561 9.72329C22.7744 9.28347 22.1639 8.88909 21.5297 8.54248L18.3047 11.7676Z" fill="white"/>
<path d="M24.9747 11.1443L21.9693 14.1511L21.9516 14.1334C21.4412 13.623 20.8848 13.1729 20.293 12.7845L23.355 9.72314C23.8944 10.1307 24.4097 10.5773 24.8946 11.0621C24.9222 11.0897 24.9491 11.1167 24.9747 11.1443V11.1443Z" fill="#BFBFBF"/>
<path d="M31.723 5.86585L8.65833 28.9305L7.92188 28.194L18.3039 17.2035L30.9865 5.12939L31.723 5.86585Z" fill="white"/>
<path d="M7.15234 27.4258L30.2135 4.36463L30.9803 5.13146L7.91917 28.1926L7.15234 27.4258Z" fill="#F3F3F3"/>
<path d="M10.1834 30.8328L4.89927 36.117L3.53906 32.5801L5.55818 29.769L9.09541 27.0244L10.1834 30.8328Z" fill="#F3F3F3"/>
<path d="M9.09331 27.0236V27.0243L3.53696 32.5799L0 31.2197L5.28417 25.9355L9.09331 27.0236Z" fill="white"/>
<path d="M36.085 0L36.0729 0.0418197L28.2413 7.87345L28.2144 7.87061L27.6289 2.44185L36.085 0Z" fill="#F3F3F3"/>
<path d="M36.0738 0.0419922L33.644 8.45626L28.2422 7.87362L31.5269 3.72957L36.0738 0.0419922Z" fill="white"/>
</svg>
